<svg width="28" height="20" viewBox="0 0 28 20" fill="none" xmlns="http://www.w3.org/2000/svg">
<mask id="mask0_401_28111" style="mask-type:alpha" maskUnits="userSpaceOnUse" x="8" y="0" width="20" height="20">
<rect x="8.33105" y="0.180771" width="19.1671" height="19.1671" fill="#D9D9D9"/>
</mask>
<g mask="url(#mask0_401_28111)">
<path d="M16.19 14.4566H16.0818L16.1137 14.56C16.2469 14.9918 16.4952 15.3531 16.8567 15.6426C17.2205 15.934 17.6411 16.0799 18.1152 16.0799C18.6926 16.0799 19.1871 15.8741 19.5943 15.4644C20.0014 15.0548 20.2057 14.5574 20.2057 13.9768C20.2057 13.3963 20.0014 12.8989 19.5943 12.4892C19.1871 12.0796 18.6926 11.8738 18.1152 11.8738H10.543H10.4631V11.9536V12.5563V12.6362H10.543H18.1152C18.4783 12.6362 18.7897 12.7672 19.0532 13.0323C19.3167 13.2974 19.4471 13.6109 19.4471 13.9768C19.4471 14.3427 19.3167 14.6562 19.0532 14.9214C18.7897 15.1865 18.4783 15.3175 18.1152 15.3175C17.8457 15.3175 17.605 15.2432 17.3905 15.0949C17.1747 14.9456 17.013 14.7492 16.9048 14.5042L16.8838 14.4566H16.8317H16.19ZM10.4631 7.90728V7.98715H10.543H21.5376C22.2428 7.98715 22.8409 7.74233 23.3269 7.25332C23.8129 6.76432 24.056 6.16273 24.056 5.45364C24.056 4.74455 23.8129 4.14296 23.3269 3.65397C22.8409 3.16495 22.2428 2.92014 21.5376 2.92014C20.9356 2.92014 20.4045 3.10161 19.9478 3.46481C19.4913 3.82782 19.1964 4.29926 19.0641 4.87619L19.0416 4.9739H19.1419H19.7836H19.8427L19.86 4.91739C19.9692 4.56037 20.1733 4.26562 20.4743 4.03159C20.7729 3.79942 21.1261 3.68251 21.5376 3.68251C22.0301 3.68251 22.4445 3.85364 22.7858 4.19702C23.1271 4.54043 23.2973 4.95768 23.2973 5.45364C23.2973 5.94961 23.1271 6.36686 22.7858 6.71026C22.4445 7.05364 22.0301 7.22477 21.5376 7.22477H10.543H10.4631V7.30464V7.90728ZM24.5808 14.4934V14.5939L24.6787 14.5712C25.2524 14.438 25.721 14.141 26.0817 13.6818C26.4426 13.2223 26.6228 12.6882 26.6228 12.0828C26.6228 11.3737 26.3797 10.7721 25.8937 10.2831C25.4077 9.79409 24.8096 9.54928 24.1045 9.54928H10.543H10.4631V9.62914V10.2318V10.3117H10.543H24.1045C24.5969 10.3117 25.0114 10.4828 25.3526 10.8262C25.6939 11.1696 25.8642 11.5868 25.8642 12.0828C25.8642 12.4972 25.7479 12.8528 25.5171 13.1533C25.2844 13.4563 24.9916 13.6616 24.637 13.7714L24.5808 13.7888V13.8477V14.4934Z" fill="#86CF34" stroke="#86CF34" stroke-width="0.159725"/>
</g>
<path d="M3.69822 9.30006C3.69792 9.33955 3.70653 9.37766 3.72239 9.41271C3.33963 10.5218 3.18688 11.9224 3.66499 13.5774C3.67947 13.6277 3.70767 13.6705 3.74391 13.703C3.78766 13.7422 3.843 13.7661 3.90158 13.771C3.96016 13.7759 4.0188 13.7616 4.06863 13.7302C4.11846 13.6989 4.15679 13.6522 4.17782 13.5972C4.19885 13.5423 4.20145 13.482 4.18522 13.4255C3.7283 11.8433 3.88121 10.5267 4.2479 9.49883C5.22799 9.17473 6.23762 8.40402 7.04955 7.35396C7.91934 6.22759 8.42059 4.96214 8.42528 3.88225C8.4252 3.84072 8.4157 3.79977 8.39749 3.7625C8.37928 3.72523 8.35283 3.6926 8.32015 3.66708C8.28726 3.64172 8.24898 3.62427 8.20824 3.61608C8.1675 3.60788 8.1254 3.60917 8.08519 3.61982C7.04102 3.89782 5.94331 4.70308 5.07338 5.82877C4.20414 6.95432 3.70278 8.21948 3.69822 9.30006ZM7.85829 4.2656C7.75033 5.13575 7.30467 6.13869 6.62132 7.02347C6.01832 7.80355 5.27991 8.42698 4.55498 8.78647C5.15696 7.6034 5.96773 6.9525 6.034 6.90098C6.09072 6.85683 6.12768 6.79203 6.13677 6.72079C6.14587 6.64954 6.12637 6.57767 6.08253 6.52093C6.06086 6.49275 6.03381 6.46916 6.00296 6.4515C5.9721 6.43384 5.93805 6.42246 5.90275 6.41802C5.86745 6.41358 5.8316 6.41617 5.79727 6.42563C5.76294 6.4351 5.7308 6.45125 5.7027 6.47317C5.68933 6.48348 5.15959 6.90534 4.60829 7.68909C4.82346 7.17136 5.12485 6.6476 5.50182 6.15965C6.18529 5.27516 7.04311 4.58999 7.85829 4.2656ZM7.3402 9.49269C6.63776 10.211 5.91997 11.0788 5.21952 12.1322C5.19978 12.1618 5.18607 12.1951 5.17918 12.23C5.17228 12.2649 5.17234 12.3008 5.17934 12.3357C5.18634 12.3706 5.20014 12.4037 5.21997 12.4332C5.23979 12.4627 5.26525 12.4879 5.29487 12.5076C5.32447 12.5272 5.35767 12.5408 5.39256 12.5476C5.42745 12.5544 5.46336 12.5543 5.49823 12.5472C5.5331 12.5401 5.56625 12.5262 5.59579 12.5063C5.62532 12.4864 5.65066 12.4609 5.67036 12.4312C6.36968 11.3789 7.09043 10.5185 7.79397 9.81162C8.82903 9.80562 10.0323 9.37813 11.1305 8.6209C12.3014 7.81289 13.1642 6.75963 13.4982 5.73176C13.5111 5.6922 13.5147 5.65023 13.5087 5.60911C13.5028 5.56798 13.4874 5.52879 13.4639 5.4946C13.4404 5.4604 13.4092 5.43211 13.373 5.41191C13.3367 5.39172 13.2962 5.38017 13.2547 5.37815C12.1753 5.32462 10.8854 5.75688 9.71522 6.56456C8.54491 7.37215 7.68222 8.4252 7.34794 9.45387C7.34366 9.46635 7.34218 9.47965 7.3402 9.49269ZM12.232 6.88105C11.8544 7.34852 11.374 7.79519 10.8235 8.17517C10.0508 8.70821 9.20477 9.06657 8.43495 9.20441C10.0063 7.80392 11.4259 7.15994 12.232 6.88105ZM10.0223 7.01019C10.9418 6.3755 11.9667 5.98459 12.8416 5.92366C12.8031 6.00739 12.758 6.09129 12.7116 6.17527C12.2328 6.27921 10.5519 6.73992 8.55506 8.37573C8.94091 7.88206 9.44381 7.40947 10.0223 7.01019Z" fill="#38D980"/>
</svg>
