<svg width="68" height="68" viewBox="0 0 68 68" fill="none" xmlns="http://www.w3.org/2000/svg">
<circle cx="34" cy="34" r="34" fill="white"/>
<path d="M54.5206 17.2495H14.3193V53.7284H54.5206V17.2495Z" fill="#5B7FA0"/>
<path d="M54.5206 17.2495H14.3193V23.9497H54.5206V17.2495Z" fill="#FF435B"/>
<path fill-rule="evenodd" clip-rule="evenodd" d="M17.2972 14.2716C17.0998 14.2716 16.9104 14.35 16.7708 14.4897C16.6312 14.6293 16.5527 14.8186 16.5527 15.0161V19.4829C16.5527 19.6803 16.6312 19.8697 16.7708 20.0093C16.9104 20.1489 17.0998 20.2273 17.2972 20.2273C17.4946 20.2273 17.684 20.1489 17.8236 20.0093C17.9632 19.8697 18.0417 19.6803 18.0417 19.4829V15.0161C18.0417 14.8186 17.9632 14.6293 17.8236 14.4897C17.684 14.35 17.4946 14.2716 17.2972 14.2716ZM23.9974 14.2716C23.8 14.2716 23.6106 14.35 23.471 14.4897C23.3314 14.6293 23.2529 14.8186 23.2529 15.0161V19.4829C23.2529 19.6803 23.3314 19.8697 23.471 20.0093C23.6106 20.1489 23.8 20.2273 23.9974 20.2273C24.1949 20.2273 24.3842 20.1489 24.5238 20.0093C24.6634 19.8697 24.7419 19.6803 24.7419 19.4829V15.0161C24.7419 14.8186 24.6634 14.6293 24.5238 14.4897C24.3842 14.35 24.1949 14.2716 23.9974 14.2716ZM31.4421 14.2716C31.2446 14.2716 31.0553 14.35 30.9157 14.4897C30.7761 14.6293 30.6976 14.8186 30.6976 15.0161V19.4829C30.6976 19.6803 30.7761 19.8697 30.9157 20.0093C31.0553 20.1489 31.2446 20.2273 31.4421 20.2273C31.6395 20.2273 31.8289 20.1489 31.9685 20.0093C32.1081 19.8697 32.1866 19.6803 32.1866 19.4829V15.0161C32.1866 14.8186 32.1081 14.6293 31.9685 14.4897C31.8289 14.35 31.6395 14.2716 31.4421 14.2716ZM38.1423 14.2716C37.9449 14.2716 37.7555 14.35 37.6159 14.4897C37.4763 14.6293 37.3978 14.8186 37.3978 15.0161V19.4829C37.3978 19.6803 37.4763 19.8697 37.6159 20.0093C37.7555 20.1489 37.9449 20.2273 38.1423 20.2273C38.3397 20.2273 38.5291 20.1489 38.6687 20.0093C38.8083 19.8697 38.8868 19.6803 38.8868 19.4829V15.0161C38.8868 14.8186 38.8083 14.6293 38.6687 14.4897C38.5291 14.35 38.3397 14.2716 38.1423 14.2716ZM44.8425 14.2716C44.6451 14.2716 44.4557 14.35 44.3161 14.4897C44.1765 14.6293 44.098 14.8186 44.098 15.0161V19.4829C44.098 19.6803 44.1765 19.8697 44.3161 20.0093C44.4557 20.1489 44.6451 20.2273 44.8425 20.2273C45.04 20.2273 45.2293 20.1489 45.3689 20.0093C45.5085 19.8697 45.587 19.6803 45.587 19.4829V15.0161C45.587 14.8186 45.5085 14.6293 45.3689 14.4897C45.2293 14.35 45.04 14.2716 44.8425 14.2716ZM51.5427 14.2716C51.3453 14.2716 51.1559 14.35 51.0163 14.4897C50.8767 14.6293 50.7983 14.8186 50.7983 15.0161V19.4829C50.7983 19.6803 50.8767 19.8697 51.0163 20.0093C51.1559 20.1489 51.3453 20.2273 51.5427 20.2273C51.7402 20.2273 51.9295 20.1489 52.0691 20.0093C52.2088 19.8697 52.2872 19.6803 52.2872 19.4829V15.0161C52.2872 14.8186 52.2088 14.6293 52.0691 14.4897C51.9295 14.35 51.7402 14.2716 51.5427 14.2716Z" fill="#5B7FA0"/>
<path fill-rule="evenodd" clip-rule="evenodd" d="M37.3981 39.1857C37.3981 39.9755 37.0844 40.7329 36.5259 41.2914C35.9675 41.8498 35.21 42.1636 34.4203 42.1636C33.6305 42.1636 32.873 41.8498 32.3146 41.2914C31.7561 40.7329 31.4424 39.9755 31.4424 39.1857C31.4424 38.3959 31.7561 37.6385 32.3146 37.08C32.873 36.5216 33.6305 36.2078 34.4203 36.2078C35.21 36.2078 35.9675 36.5216 36.5259 37.08C37.0844 37.6385 37.3981 38.3959 37.3981 39.1857Z" fill="#ABD6FD"/>
<path fill-rule="evenodd" clip-rule="evenodd" d="M34.4196 35.4628C32.3726 35.4628 30.6973 37.1381 30.6973 39.1851C30.6973 41.2321 32.3726 42.9074 34.4196 42.9074C36.4666 42.9074 38.1419 41.2321 38.1419 39.1851C38.1419 37.1381 36.4666 35.4628 34.4196 35.4628ZM34.4196 36.9517C35.6619 36.9517 36.653 37.9428 36.653 39.1851C36.653 40.4274 35.6619 41.4185 34.4196 41.4185C33.1773 41.4185 32.1862 40.4274 32.1862 39.1851C32.1862 37.9428 33.1773 36.9517 34.4196 36.9517Z" fill="#D8ECFE"/>
<path fill-rule="evenodd" clip-rule="evenodd" d="M34.4202 26.5292C34.2228 26.5292 34.0334 26.6076 33.8938 26.7472C33.7542 26.8868 33.6758 27.0762 33.6758 27.2736V36.2072C33.6758 36.4047 33.7542 36.594 33.8938 36.7337C34.0334 36.8733 34.2228 36.9517 34.4202 36.9517C34.6177 36.9517 34.8071 36.8733 34.9467 36.7337C35.0863 36.594 35.1647 36.4047 35.1647 36.2072V27.2736C35.1647 27.0762 35.0863 26.8868 34.9467 26.7472C34.8071 26.6076 34.6177 26.5292 34.4202 26.5292Z" fill="#D8ECFE"/>
<path fill-rule="evenodd" clip-rule="evenodd" d="M32.1955 27.6211C32.0977 27.62 32.0006 27.6382 31.9098 27.6746C31.8189 27.711 31.7362 27.765 31.6663 27.8334C31.5251 27.9715 31.4446 28.16 31.4424 28.3574C31.4402 28.5548 31.5166 28.745 31.6546 28.8862L33.888 31.1705C33.9574 31.2413 34.0401 31.2976 34.1315 31.3361C34.2229 31.3745 34.3211 31.3943 34.4202 31.3943C34.5193 31.3943 34.6175 31.3745 34.7089 31.3361C34.8003 31.2976 34.883 31.2413 34.9524 31.1705L37.1858 28.8862C37.3238 28.745 37.4002 28.5548 37.398 28.3574C37.3958 28.16 37.3153 27.9715 37.1741 27.8334C37.033 27.6954 36.8428 27.6191 36.6454 27.6212C36.448 27.6234 36.2595 27.7039 36.1214 27.8451L34.4202 29.5856L32.719 27.8451C32.5811 27.704 32.3928 27.6235 32.1955 27.6211Z" fill="#D8ECFE"/>
<path fill-rule="evenodd" clip-rule="evenodd" d="M32.1955 31.3435C32.0977 31.3423 32.0006 31.3605 31.9098 31.3969C31.8189 31.4334 31.7362 31.4873 31.6663 31.5558C31.5251 31.6938 31.4446 31.8823 31.4424 32.0797C31.4402 32.2771 31.5166 32.4673 31.6546 32.6085L33.888 34.8928C33.9574 34.9637 34.0401 35.02 34.1315 35.0584C34.2229 35.0968 34.3211 35.1166 34.4202 35.1166C34.5193 35.1166 34.6175 35.0968 34.7089 35.0584C34.8003 35.02 34.883 34.9637 34.9524 34.8928L37.1858 32.6085C37.3238 32.4673 37.4002 32.2771 37.398 32.0797C37.3958 31.8823 37.3153 31.6938 37.1741 31.5558C37.033 31.4177 36.8428 31.3414 36.6454 31.3436C36.448 31.3458 36.2595 31.4263 36.1214 31.5674L34.4202 33.3079L32.719 31.5674C32.5811 31.4264 32.3928 31.3458 32.1955 31.3435ZM37.3981 38.4406C37.2006 38.4406 37.0113 38.5191 36.8717 38.6587C36.732 38.7983 36.6536 38.9877 36.6536 39.1851C36.6536 39.3826 36.732 39.5719 36.8717 39.7115C37.0113 39.8511 37.2006 39.9296 37.3981 39.9296H46.3317C46.5291 39.9296 46.7185 39.8511 46.8581 39.7115C46.9977 39.5719 47.0762 39.3826 47.0762 39.1851C47.0762 38.9877 46.9977 38.7983 46.8581 38.6587C46.7185 38.5191 46.5291 38.4406 46.3317 38.4406H37.3981Z" fill="#D8ECFE"/>
<path fill-rule="evenodd" clip-rule="evenodd" d="M45.2476 36.2072C45.0505 36.2053 44.8607 36.2817 44.7198 36.4195L42.4355 38.6529C42.3644 38.7223 42.3079 38.8052 42.2694 38.8967C42.2308 38.9882 42.2109 39.0865 42.2109 39.1858C42.2109 39.2851 42.2308 39.3835 42.2694 39.475C42.3079 39.5665 42.3644 39.6494 42.4355 39.7187L44.7198 41.9521C44.8612 42.09 45.0515 42.1661 45.2489 42.1636C45.4463 42.1612 45.6347 42.0804 45.7725 41.9391C45.9104 41.7977 45.9865 41.6074 45.984 41.41C45.9816 41.2126 45.9008 41.0242 45.7595 40.8863L44.0204 39.1851L45.7595 37.4853C45.9008 37.3475 45.9816 37.1591 45.984 36.9617C45.9865 36.7643 45.9104 36.5739 45.7725 36.4326C45.7042 36.3623 45.6226 36.3062 45.5326 36.2676C45.4425 36.2289 45.3457 36.2084 45.2476 36.2072Z" fill="#D8ECFE"/>
<path fill-rule="evenodd" clip-rule="evenodd" d="M41.5261 36.2072C41.329 36.2053 41.1392 36.2817 40.9983 36.4195L38.714 38.6529C38.6429 38.7223 38.5864 38.8052 38.5479 38.8967C38.5093 38.9882 38.4894 39.0865 38.4894 39.1858C38.4894 39.2851 38.5093 39.3835 38.5479 39.475C38.5864 39.5665 38.6429 39.6494 38.714 39.7187L40.9983 41.9521C41.1397 42.09 41.33 42.1661 41.5274 42.1636C41.7248 42.1612 41.9132 42.0804 42.051 41.9391C42.1889 41.7977 42.265 41.6074 42.2625 41.41C42.2601 41.2126 42.1793 41.0242 42.038 40.8863L40.2989 39.1851L42.038 37.4853C42.1793 37.3475 42.2601 37.1591 42.2625 36.9617C42.265 36.7643 42.1889 36.5739 42.051 36.4326C41.9827 36.3623 41.9011 36.3062 41.8111 36.2676C41.721 36.2289 41.6242 36.2084 41.5261 36.2072ZM34.4202 41.4185C34.2228 41.4185 34.0334 41.4969 33.8938 41.6366C33.7542 41.7762 33.6758 41.9655 33.6758 42.163V51.0966C33.6758 51.294 33.7542 51.4834 33.8938 51.623C34.0334 51.7626 34.2228 51.8411 34.4202 51.8411C34.6177 51.8411 34.8071 51.7626 34.9467 51.623C35.0863 51.4834 35.1647 51.294 35.1647 51.0966V42.163C35.1647 41.9655 35.0863 41.7762 34.9467 41.6366C34.8071 41.4969 34.6177 41.4185 34.4202 41.4185Z" fill="#D8ECFE"/>
<path fill-rule="evenodd" clip-rule="evenodd" d="M34.4202 46.9773C34.3211 46.9773 34.2229 46.9971 34.1315 47.0356C34.0401 47.074 33.9574 47.1303 33.888 47.2012L31.6546 49.4855C31.5166 49.6267 31.4402 49.8169 31.4424 50.0143C31.4446 50.2117 31.5251 50.4002 31.6663 50.5382C31.8074 50.6763 31.9976 50.7526 32.195 50.7504C32.3925 50.7482 32.5809 50.6677 32.719 50.5266L34.4202 48.7861L36.1214 50.5266C36.2595 50.6677 36.448 50.7483 36.6454 50.7504C36.8428 50.7526 37.033 50.6763 37.1742 50.5382C37.3153 50.4002 37.3958 50.2117 37.398 50.0143C37.4002 49.8169 37.3238 49.6267 37.1858 49.4855L34.9524 47.2012C34.8831 47.1303 34.8003 47.074 34.7089 47.0356C34.6175 46.9971 34.5194 46.9773 34.4202 46.9773Z" fill="#D8ECFE"/>
<path fill-rule="evenodd" clip-rule="evenodd" d="M34.4206 43.255C34.3214 43.255 34.2233 43.2748 34.1319 43.3132C34.0405 43.3517 33.9577 43.408 33.8884 43.4789L31.655 45.7632C31.5169 45.9043 31.4406 46.0945 31.4428 46.292C31.445 46.4894 31.5255 46.6778 31.6666 46.8159C31.8078 46.954 31.998 47.0303 32.1954 47.0281C32.3928 47.0259 32.5813 46.9454 32.7193 46.8043L34.4206 45.0638L36.1218 46.8043C36.2598 46.9454 36.4483 47.0259 36.6457 47.0281C36.8432 47.0303 37.0334 46.954 37.1745 46.8159C37.3156 46.6778 37.3962 46.4894 37.3983 46.292C37.4005 46.0945 37.3242 45.9043 37.1861 45.7632L34.9527 43.4789C34.8834 43.408 34.8006 43.3517 34.7092 43.3132C34.6178 43.2748 34.5197 43.255 34.4206 43.255ZM22.5687 38.4406C22.3712 38.4406 22.1819 38.5191 22.0423 38.6587C21.9027 38.7983 21.8242 38.9877 21.8242 39.1851C21.8242 39.3826 21.9027 39.5719 22.0423 39.7115C22.1819 39.8511 22.3712 39.9296 22.5687 39.9296H31.4427C31.6401 39.9296 31.8295 39.8511 31.9691 39.7115C32.1087 39.5719 32.1872 39.3826 32.1872 39.1851C32.1872 38.9877 32.1087 38.7983 31.9691 38.6587C31.8295 38.5191 31.6401 38.4406 31.4427 38.4406H22.5687Z" fill="#D8ECFE"/>
<path fill-rule="evenodd" clip-rule="evenodd" d="M23.5919 36.2072C23.4939 36.2084 23.3971 36.2289 23.307 36.2676C23.2169 36.3062 23.1353 36.3623 23.067 36.4326C22.9291 36.5739 22.8531 36.7643 22.8555 36.9617C22.858 37.1591 22.9388 37.3475 23.0801 37.4853L24.8191 39.1851L23.0801 40.8863C22.9388 41.0242 22.858 41.2126 22.8555 41.41C22.8531 41.6074 22.9291 41.7977 23.067 41.9391C23.2049 42.0804 23.3932 42.1612 23.5907 42.1636C23.7881 42.1661 23.9784 42.09 24.1197 41.9521L26.404 39.7187C26.4751 39.6494 26.5316 39.5665 26.5702 39.475C26.6087 39.3835 26.6286 39.2851 26.6286 39.1858C26.6286 39.0865 26.6087 38.9882 26.5702 38.8967C26.5316 38.8052 26.4751 38.7223 26.404 38.6529L24.1197 36.4195C23.9788 36.2817 23.789 36.2053 23.5919 36.2072Z" fill="#D8ECFE"/>
<path fill-rule="evenodd" clip-rule="evenodd" d="M27.8425 36.4195C27.7012 36.2817 27.5109 36.2056 27.3135 36.208C27.116 36.2105 26.9277 36.2913 26.7898 36.4326C26.652 36.5739 26.5759 36.7643 26.5783 36.9617C26.5808 37.1591 26.6616 37.3475 26.8029 37.4853L28.5419 39.1851L26.8029 40.8863C26.6616 41.0242 26.5808 41.2126 26.5783 41.41C26.5759 41.6074 26.652 41.7977 26.7898 41.9391C26.9277 42.0804 27.116 42.1612 27.3135 42.1636C27.5109 42.1661 27.7012 42.09 27.8425 41.9521L30.1268 39.7187C30.1979 39.6494 30.2544 39.5665 30.293 39.475C30.3315 39.3835 30.3514 39.2851 30.3514 39.1858C30.3514 39.0865 30.3315 38.9882 30.293 38.8967C30.2544 38.8052 30.1979 38.7223 30.1268 38.6529L27.8425 36.4195ZM40.3764 30.2515C40.1789 30.2515 39.9895 30.3299 39.8499 30.4695C39.7103 30.6092 39.6319 30.7985 39.6319 30.996V33.2294C39.6319 33.4268 39.7103 33.6161 39.85 33.7558C39.9896 33.8954 40.1789 33.9738 40.3764 33.9738H42.6098C42.8072 33.9738 42.9966 33.8954 43.1362 33.7558C43.2758 33.6162 43.3542 33.4268 43.3542 33.2294C43.3542 33.0319 43.2758 32.8426 43.1362 32.7029C42.9966 32.5633 42.8072 32.4849 42.6098 32.4849H41.1208V30.996C41.1208 30.7985 41.0424 30.6092 40.9028 30.4695C40.7632 30.3299 40.5738 30.2515 40.3764 30.2515ZM28.4649 30.2515C28.2674 30.2515 28.0781 30.3299 27.9384 30.4695C27.7988 30.6092 27.7204 30.7985 27.7204 30.996V32.4849H26.2315C26.034 32.4849 25.8447 32.5633 25.705 32.7029C25.5654 32.8426 25.487 33.0319 25.487 33.2294C25.487 33.4268 25.5654 33.6162 25.705 33.7558C25.8447 33.8954 26.034 33.9738 26.2315 33.9738H28.4649C28.6623 33.9738 28.8517 33.8954 28.9913 33.7558C29.1309 33.6161 29.2093 33.4268 29.2093 33.2294V30.996C29.2093 30.7985 29.1309 30.6092 28.9913 30.4695C28.8517 30.3299 28.6623 30.2515 28.4649 30.2515ZM40.3764 44.3964C40.1789 44.3964 39.9896 44.4748 39.85 44.6144C39.7103 44.7541 39.6319 44.9434 39.6319 45.1408V47.3742C39.6319 47.5717 39.7103 47.7611 39.8499 47.9007C39.9895 48.0403 40.1789 48.1187 40.3764 48.1187C40.5738 48.1187 40.7632 48.0403 40.9028 47.9007C41.0424 47.7611 41.1208 47.5717 41.1208 47.3742V45.8853H42.6098C42.8072 45.8853 42.9966 45.8069 43.1362 45.6673C43.2758 45.5276 43.3542 45.3383 43.3542 45.1408C43.3542 44.9434 43.2758 44.754 43.1362 44.6144C42.9966 44.4748 42.8072 44.3964 42.6098 44.3964H40.3764ZM26.2315 44.3964C26.034 44.3964 25.8447 44.4748 25.705 44.6144C25.5654 44.754 25.487 44.9434 25.487 45.1408C25.487 45.3383 25.5654 45.5276 25.705 45.6673C25.8447 45.8069 26.034 45.8853 26.2315 45.8853H27.7204V47.3742C27.7204 47.5717 27.7988 47.7611 27.9384 47.9007C28.0781 48.0403 28.2674 48.1187 28.4649 48.1187C28.6623 48.1187 28.8517 48.0403 28.9913 47.9007C29.1309 47.7611 29.2093 47.5717 29.2093 47.3742V45.1408C29.2093 44.9434 29.1309 44.7541 28.9913 44.6144C28.8517 44.4748 28.6623 44.3964 28.4649 44.3964H26.2315ZM49.2277 29.9054C49.0303 29.9054 48.8409 29.9838 48.7013 30.1234C48.5617 30.2631 48.4832 30.4524 48.4832 30.6499C48.4832 30.8473 48.5617 31.0367 48.7013 31.1763C48.8409 31.3159 49.0303 31.3943 49.2277 31.3943C49.4251 31.3943 49.6145 31.3159 49.7541 31.1763C49.8937 31.0367 49.9722 30.8473 49.9722 30.6499C49.9722 30.4524 49.8937 30.2631 49.7541 30.1234C49.6145 29.9838 49.4251 29.9054 49.2277 29.9054ZM20.3823 28.7632C20.1848 28.7632 19.9955 28.8416 19.8559 28.9812C19.7162 29.1208 19.6378 29.3102 19.6378 29.5076C19.6378 29.7051 19.7162 29.8944 19.8559 30.034C19.9955 30.1737 20.1848 30.2521 20.3823 30.2521C20.5797 30.2521 20.7691 30.1737 20.9087 30.034C21.0483 29.8944 21.1267 29.7051 21.1267 29.5076C21.1267 29.3102 21.0483 29.1208 20.9087 28.9812C20.7691 28.8416 20.5797 28.7632 20.3823 28.7632ZM18.0423 44.7692C17.8449 44.7692 17.6555 44.8477 17.5159 44.9873C17.3763 45.1269 17.2979 45.3162 17.2979 45.5137C17.2979 45.7111 17.3763 45.9005 17.5159 46.0401C17.6555 46.1797 17.8449 46.2582 18.0423 46.2582C18.2398 46.2582 18.4291 46.1797 18.5687 46.0401C18.7084 45.9005 18.7868 45.7111 18.7868 45.5137C18.7868 45.3162 18.7084 45.1269 18.5687 44.9873C18.4291 44.8477 18.2398 44.7692 18.0423 44.7692ZM45.2409 49.0535C45.0435 49.0535 44.8541 49.132 44.7145 49.2716C44.5749 49.4112 44.4965 49.6005 44.4965 49.798C44.4965 49.9954 44.5749 50.1848 44.7145 50.3244C44.8541 50.464 45.0435 50.5425 45.2409 50.5425C45.4384 50.5425 45.6278 50.464 45.7674 50.3244C45.907 50.1848 45.9854 49.9954 45.9854 49.798C45.9854 49.6005 45.907 49.4112 45.7674 49.2716C45.6278 49.132 45.4384 49.0535 45.2409 49.0535Z" fill="#D8ECFE"/>
</svg>
