<svg width="102" height="102" viewBox="0 0 102 102" fill="none" xmlns="http://www.w3.org/2000/svg">
<path d="M51 101C78.6142 101 101 78.6142 101 51C101 23.3858 78.6142 1 51 1C23.3858 1 1 23.3858 1 51C1 78.6142 23.3858 101 51 101Z" fill="#589FFF"/>
<path d="M51 101C78.6142 101 101 78.6142 101 51C101 23.3858 78.6142 1 51 1C23.3858 1 1 23.3858 1 51C1 78.6142 23.3858 101 51 101Z" stroke="#242C88" stroke-width="2" stroke-miterlimit="10" stroke-linecap="round" stroke-linejoin="round"/>
<path opacity="0.4" d="M6 51C6 26.1 26.1 6 51 6" stroke="white" stroke-width="8" stroke-miterlimit="10" stroke-linecap="round" stroke-linejoin="round"/>
<path opacity="0.2" d="M96 51C96 75.9 75.9 96 51 96" stroke="#242C88" stroke-width="8" stroke-miterlimit="10" stroke-linecap="round" stroke-linejoin="round"/>
<path d="M51 91C73.0914 91 91 73.0914 91 51C91 28.9086 73.0914 11 51 11C28.9086 11 11 28.9086 11 51C11 73.0914 28.9086 91 51 91Z" fill="white"/>
<path d="M63.7885 31.5202L54.7691 52.7021L47.329 48.3231L61.6043 30.1204L63.7885 31.5202Z" fill="#5E61A3"/>
<path d="M34.9004 29.7L50.5004 50.5" stroke="#FF5751" stroke-width="4" stroke-miterlimit="10" stroke-linecap="round" stroke-linejoin="round"/>
<path d="M63.7885 31.5202L54.7691 52.7021L47.329 48.3231L61.6043 30.1204L63.7885 31.5202Z" stroke="#242C88" stroke-width="2" stroke-miterlimit="10" stroke-linecap="round" stroke-linejoin="round"/>
<path d="M51 91C73.0914 91 91 73.0914 91 51C91 28.9086 73.0914 11 51 11C28.9086 11 11 28.9086 11 51C11 73.0914 28.9086 91 51 91Z" stroke="#242C88" stroke-width="2" stroke-miterlimit="10" stroke-linecap="round" stroke-linejoin="round"/>
<path d="M51.0008 56.7C54.1488 56.7 56.7008 54.1481 56.7008 51C56.7008 47.852 54.1488 45.3 51.0008 45.3C47.8528 45.3 45.3008 47.852 45.3008 51C45.3008 54.1481 47.8528 56.7 51.0008 56.7Z" fill="#FFC408"/>
<path d="M51.0008 56.7C54.1488 56.7 56.7008 54.1481 56.7008 51C56.7008 47.852 54.1488 45.3 51.0008 45.3C47.8528 45.3 45.3008 47.852 45.3008 51C45.3008 54.1481 47.8528 56.7 51.0008 56.7Z" stroke="#242C88" stroke-width="2" stroke-miterlimit="10" stroke-linecap="round" stroke-linejoin="round"/>
<path d="M51 18V19" stroke="#242C88" stroke-width="4" stroke-miterlimit="10" stroke-linecap="round" stroke-linejoin="round"/>
<path d="M51 83V84" stroke="#242C88" stroke-width="4" stroke-miterlimit="10" stroke-linecap="round" stroke-linejoin="round"/>
<path d="M18 51H19" stroke="#242C88" stroke-width="4" stroke-miterlimit="10" stroke-linecap="round" stroke-linejoin="round"/>
<path d="M83 51H84" stroke="#242C88" stroke-width="4" stroke-miterlimit="10" stroke-linecap="round" stroke-linejoin="round"/>
<path d="M33.5996 20.9L34.9996 23.3" stroke="#242C88" stroke-width="2" stroke-miterlimit="10" stroke-linecap="round" stroke-linejoin="round"/>
<path d="M67 78.7L68.4 81.2" stroke="#242C88" stroke-width="2" stroke-miterlimit="10" stroke-linecap="round" stroke-linejoin="round"/>
<path d="M21 68.3L23.3 67" stroke="#242C88" stroke-width="2" stroke-miterlimit="10" stroke-linecap="round" stroke-linejoin="round"/>
<path d="M78.6992 35L80.8992 33.7" stroke="#242C88" stroke-width="2" stroke-miterlimit="10" stroke-linecap="round" stroke-linejoin="round"/>
<path d="M21.3008 33.9L23.3008 35" stroke="#242C88" stroke-width="2" stroke-miterlimit="10" stroke-linecap="round" stroke-linejoin="round"/>
<path d="M78.6992 67L80.9992 68.3" stroke="#242C88" stroke-width="2" stroke-miterlimit="10" stroke-linecap="round" stroke-linejoin="round"/>
<path d="M33.8008 80.8L35.0008 78.7" stroke="#242C88" stroke-width="2" stroke-miterlimit="10" stroke-linecap="round" stroke-linejoin="round"/>
<path d="M67 23.3L68.3 21" stroke="#242C88" stroke-width="2" stroke-miterlimit="10" stroke-linecap="round" stroke-linejoin="round"/>
</svg>
