<svg width="375" height="296" viewBox="0 0 375 296" fill="none" xmlns="http://www.w3.org/2000/svg">
<path opacity="0.18" d="M44.6292 33.5041C30.9797 36.3737 16.7919 39.4881 5.83414 48.0581C-3.41879 55.2879 -17.8365 68.6352 -22.205 79.4798C-40.7109 125.289 -19.7881 181.03 20.8239 209.538C39.9242 222.946 63.7295 229.436 80.8951 245.219C91.7518 255.202 99.3561 268.416 110.908 277.592C127.788 290.989 150.578 293.954 172.146 295.388C187.13 296.395 202.697 296.829 216.599 291.178C226.648 287.096 235.161 280.095 243.517 273.193L298.872 227.351C307.766 219.993 316.082 208.275 327.662 208.353C431.89 209.093 438.916 87.4492 278.953 33.5708C264.855 28.8214 255.187 15.6187 241.941 8.85056C214.58 -5.13625 183.092 -0.603746 155.496 9.07302C120.458 21.3914 80.9904 25.8349 44.6292 33.5041Z" fill="#68E1FD"/>
</svg>
