<svg width="20" height="20" viewBox="0 0 20 20" fill="none" xmlns="http://www.w3.org/2000/svg">
<mask id="mask0_403_28409" style="mask-type:alpha" maskUnits="userSpaceOnUse" x="0" y="0" width="20" height="20">
<rect width="20" height="20" fill="#D9D9D9"/>
</mask>
<g mask="url(#mask0_403_28409)">
<path d="M3.33366 4.16666H10.0003V3.33332H3.33366V4.16666ZM3.33366 18.3333C2.87533 18.3333 2.48296 18.1701 2.15658 17.8437C1.83019 17.5174 1.66699 17.125 1.66699 16.6667V3.33332C1.66699 2.87499 1.83019 2.48263 2.15658 2.15624C2.48296 1.82985 2.87533 1.66666 3.33366 1.66666H10.0003C10.4587 1.66666 10.851 1.82985 11.1774 2.15624C11.5038 2.48263 11.667 2.87499 11.667 3.33332V6.54166C11.3475 6.70832 11.0489 6.8993 10.7712 7.11457C10.4934 7.32985 10.2364 7.56943 10.0003 7.83332V5.83332H3.33366V14.1667H8.68783C8.79894 14.4722 8.92741 14.7639 9.07324 15.0417C9.21908 15.3194 9.38921 15.5833 9.58366 15.8333H3.33366V16.6667H10.0003V16.3333C10.2087 16.5694 10.4309 16.7847 10.667 16.9792C10.9031 17.1736 11.16 17.3472 11.4378 17.5C11.285 17.75 11.0871 17.9514 10.8441 18.1042C10.601 18.2569 10.3198 18.3333 10.0003 18.3333H3.33366ZM14.5837 15C15.3892 15 16.0767 14.7153 16.6462 14.1458C17.2156 13.5764 17.5003 12.8889 17.5003 12.0833C17.5003 11.2778 17.2156 10.5903 16.6462 10.0208C16.0767 9.45138 15.3892 9.16666 14.5837 9.16666C13.7781 9.16666 13.0906 9.45138 12.5212 10.0208C11.9517 10.5903 11.667 11.2778 11.667 12.0833C11.667 12.8889 11.9517 13.5764 12.5212 14.1458C13.0906 14.7153 13.7781 15 14.5837 15ZM12.5003 18.3333V16.1667C11.7503 15.7917 11.1462 15.243 10.6878 14.5208C10.2295 13.7986 10.0003 12.9861 10.0003 12.0833C10.0003 11.1805 10.2295 10.368 10.6878 9.64582C11.1462 8.9236 11.7503 8.37499 12.5003 7.99999V5.83332H16.667V7.99999C17.417 8.37499 18.0212 8.9236 18.4795 9.64582C18.9378 10.368 19.167 11.1805 19.167 12.0833C19.167 12.9861 18.9378 13.7986 18.4795 14.5208C18.0212 15.243 17.417 15.7917 16.667 16.1667V18.3333H12.5003Z" fill="#1C1B1F"/>
</g>
</svg>
