<svg width="125" height="102" viewBox="0 0 125 102" fill="none" xmlns="http://www.w3.org/2000/svg">
<path d="M85.366 75.8308C99.3261 61.8708 99.3261 39.237 85.366 25.2769C71.4059 11.3169 48.7722 11.3169 34.8121 25.2769C20.852 39.237 20.852 61.8708 34.8121 75.8308C48.7722 89.7909 71.4059 89.7909 85.366 75.8308Z" fill="#68E1FD" fill-opacity="0.5"/>
<path d="M124.989 85.1815V51.3766C124.989 50.527 124.652 49.7121 124.051 49.1113C123.45 48.5104 122.635 48.1729 121.786 48.1729H87.1532L74.7921 38.6151C74.385 38.3064 73.888 38.1394 73.3771 38.1398C73.066 38.1391 72.7579 38.1998 72.4703 38.3184C72.1826 38.4369 71.9213 38.611 71.701 38.8308C71.4808 39.0505 71.3061 39.3115 71.1869 39.5988C71.0677 39.8862 71.0063 40.1942 71.0063 40.5053V48.1729H69.0788C68.2291 48.1729 67.4142 48.5104 66.8134 49.1113C66.2125 49.7121 65.875 50.527 65.875 51.3766V85.1708C65.8834 86.0149 66.2247 86.8216 66.8246 87.4155C67.4245 88.0094 68.2346 88.3426 69.0788 88.3425H121.818C122.655 88.3342 123.455 87.9989 124.048 87.4081C124.64 86.8174 124.978 86.0182 124.989 85.1815Z" fill="#263238"/>
<path opacity="0.9" d="M121.801 48.1996H87.1523L77.5037 40.7242C71.3739 50.3087 67.6361 62.0558 65.8848 74.1125V85.1868C65.8932 86.031 66.2345 86.8376 66.8344 87.4315C67.4343 88.0254 68.2443 88.3586 69.0885 88.3585H121.827C122.667 88.3502 123.47 88.0126 124.063 87.4184C124.656 86.8243 124.992 86.021 124.999 85.1815V51.3766C124.992 50.5325 124.652 49.7253 124.053 49.1304C123.454 48.5355 122.645 48.201 121.801 48.1996Z" fill="#FFD3B6"/>
<path d="M89.531 88.3595L89.7072 77.8396C88.2133 81.4842 86.4275 85.0023 84.3672 88.3595H89.531Z" fill="#EA863E"/>
<path d="M65.8857 56.524C71.2626 52.2523 78.4978 48.9151 88.2745 48.1996H87.1532L74.7921 38.6418C74.385 38.333 73.888 38.1661 73.3771 38.1665C73.066 38.1658 72.7579 38.2265 72.4703 38.3451C72.1826 38.4636 71.9213 38.6378 71.701 38.8575C71.4808 39.0772 71.3061 39.3382 71.1869 39.6255C71.0677 39.9129 71.0063 40.2209 71.0063 40.532V48.1996H69.0788C68.2291 48.1996 67.4142 48.5371 66.8134 49.138C66.2125 49.7388 65.875 50.5537 65.875 51.4033L65.8857 56.524Z" fill="#263238"/>
<path d="M70.0477 68.4938C69.2532 72.1923 70.7628 75.54 73.353 75.9932C75.9432 76.4464 78.6923 73.8662 79.463 70.2188C80.1622 67.0831 79.1611 64.2105 77.2542 63.1287C77.1099 63.0465 76.9584 62.9756 76.8013 62.9167L68.2441 58.8819C68.2441 58.8819 69.9206 62.6316 72.8207 63.7354C71.3541 64.9988 70.3798 66.6708 70.0477 68.4938Z" fill="#263238"/>
<path d="M71.6816 57.5011C71.9155 57.4908 72.1439 57.4269 72.3491 57.3142C74.12 56.257 76.1167 55.6356 78.1747 55.501C80.2328 55.3664 82.2934 55.7225 84.1869 56.54C84.4973 56.7074 84.8613 56.7453 85.1994 56.6452C85.5376 56.5452 85.8224 56.3154 85.9917 56.0061C86.148 55.6857 86.1736 55.3171 86.063 54.9783C85.9524 54.6395 85.7142 54.357 85.399 54.1906C83.1134 53.1746 80.6183 52.7188 78.1211 52.8609C75.6238 53.0029 73.1966 53.7389 71.0409 55.0075C70.7691 55.1448 70.5526 55.3711 70.4277 55.6487C70.3027 55.9264 70.2768 56.2385 70.3544 56.5329C70.4319 56.8274 70.6081 57.0863 70.8536 57.2664C71.099 57.4465 71.3989 57.5369 71.703 57.5225L71.6816 57.5011Z" fill="#263238"/>
<path d="M106.374 70.8269C105.159 71.96 104.346 73.4431 104.055 75.0595C103.39 78.3508 104.56 81.3175 106.773 81.72C108.986 82.1225 111.285 79.8309 111.929 76.5915C112.481 73.8066 111.664 71.2553 110.089 70.2946L109.73 70.1193L102.566 66.5099C102.566 66.5099 103.942 69.8467 106.374 70.8269Z" fill="#263238"/>
<path d="M106.525 58.0671C106.169 58.0769 105.831 58.2252 105.582 58.4805C105.334 58.7358 105.195 59.0779 105.195 59.4341C105.212 59.7858 105.366 60.1169 105.625 60.3557C105.884 60.5945 106.226 60.7218 106.578 60.7102C110.748 60.9131 116.302 63.9994 118.587 67.4915C118.726 67.6845 118.909 67.8418 119.121 67.9507C119.388 68.0963 119.697 68.1462 119.997 68.0921C120.297 68.0379 120.569 67.883 120.768 67.653C120.967 67.423 121.082 67.1318 121.094 66.8275C121.105 66.5233 121.012 66.2244 120.83 65.9804C118.005 61.7728 111.597 58.254 106.525 58.0671Z" fill="#263238"/>
<path d="M93.6585 90.772H86.9941V91.1725H93.6585V90.772Z" fill="#407BFF"/>
<path d="M82.8604 91.1725H67.8028C66.5098 91.1697 65.2706 90.6544 64.3568 89.7396C63.4431 88.8248 62.9291 87.5851 62.9277 86.2921V81.4438H63.3282V86.2921C63.3282 87.4794 63.7995 88.618 64.6385 89.458C65.4774 90.298 66.6156 90.7706 67.8028 90.772H82.8604V91.1725Z" fill="#407BFF"/>
<path d="M37.6351 5.72097H30.9707V6.12147H37.6351V5.72097Z" fill="#407BFF"/>
<path d="M61.6983 15.455H61.2978V10.6013C61.2964 9.41363 60.8239 8.27497 59.9841 7.43514C59.1443 6.5953 58.0056 6.12285 56.8179 6.12144H41.7656V5.72097H56.8179C58.1118 5.72238 59.3523 6.23702 60.2673 7.15196C61.1822 8.0669 61.6969 9.30742 61.6983 10.6013V15.455Z" fill="#407BFF"/>
<path d="M27.8745 42.2439L55.8859 44.4972L58.0965 39.5367C58.0965 39.5367 58.5076 38.6237 59.127 37.0218V11.6214C59.1172 10.7782 58.7753 9.97293 58.1756 9.38017C57.5758 8.78741 56.7665 8.45501 55.9233 8.45507H9.5918C12.6354 19.4866 18.4555 32.3123 27.8745 42.2439Z" fill="#263238"/>
<path d="M59.1305 45.4209V31.3138C58.4004 23.4785 56.5761 15.7841 53.7108 8.45507H3.20375C2.35406 8.45507 1.53918 8.7926 0.938361 9.39342C0.337542 9.99424 0 10.8091 0 11.6588V45.4476C0 46.2973 0.337542 47.1122 0.938361 47.713C1.53918 48.3139 2.35406 48.6514 3.20375 48.6514H37.8469L50.224 58.1718C50.6311 58.4806 51.1281 58.6475 51.639 58.6471C51.9501 58.6478 52.2583 58.5871 52.5459 58.4685C52.8335 58.35 53.0949 58.1759 53.3151 57.9561C53.5353 57.7364 53.71 57.4754 53.8292 57.1881C53.9484 56.9008 54.0098 56.5927 54.0098 56.2816V48.614H55.9374C56.7834 48.6112 57.5939 48.2739 58.1921 47.6757C58.7903 47.0775 59.1276 46.2669 59.1305 45.4209Z" fill="#FCCAC8"/>
<path d="M17.4399 30.2948C17.3435 28.7171 18.1044 27.3698 19.1606 27.3098C20.2169 27.2499 21.1415 28.4742 21.2378 30.0644C21.3341 31.6547 20.5668 32.9705 19.5106 33.0273C18.4544 33.0841 17.533 31.8661 17.4399 30.2948Z" fill="#263238"/>
<path d="M51.9376 33.0273C50.8813 33.0841 49.9598 31.8636 49.8602 30.2742C49.7607 28.6848 50.5313 27.3698 51.5876 27.3098C52.644 27.2499 53.5687 28.4735 53.6586 30.044C53.7485 31.6145 52.994 32.9674 51.9376 33.0273Z" fill="#263238"/>
<path d="M41.2731 51.2302C39.2824 47.1499 37.5837 42.9335 36.1898 38.6128L35.5918 48.6138H37.8825L41.2731 51.2302Z" fill="#EA817E"/>
<path d="M7.62642 23.2508C7.88211 23.3147 8.14979 23.3129 8.40463 23.2457C8.65947 23.1785 8.8932 23.048 9.08413 22.8663C10.3267 21.3302 11.9159 20.1106 13.7213 19.3077C15.5266 18.5048 17.4966 18.1415 19.4696 18.2476C19.8491 18.2352 20.2119 18.0883 20.4932 17.8332C20.7745 17.5782 20.956 17.2314 21.0054 16.8549C21.0548 16.4784 20.9688 16.0966 20.7628 15.7776C20.5568 15.4586 20.2442 15.2232 19.8807 15.1133C17.39 14.9516 14.8963 15.3821 12.6039 16.3696C10.3115 17.3571 8.28556 18.8735 6.69199 20.7946C6.43281 21.1188 6.30584 21.5291 6.33654 21.9431C6.36724 22.357 6.55334 22.7441 6.85752 23.0265C7.09658 23.1511 7.35787 23.2273 7.62642 23.2508Z" fill="#263238"/>
<path d="M58.8252 25.8788C58.8978 26.054 59.0008 26.2149 59.1296 26.3541V20.1917C57.0288 17.7263 54.2154 15.9726 51.0768 15.172C50.6675 15.0934 50.2438 15.1806 49.8988 15.4145C49.5538 15.6483 49.3158 16.0096 49.2372 16.4189C49.1586 16.8282 49.2458 17.252 49.4796 17.597C49.7135 17.942 50.0748 18.18 50.4841 18.2586C52.3741 18.7867 54.1136 19.7514 55.5625 21.075C57.0113 22.3986 58.1289 24.0441 58.8252 25.8788Z" fill="#263238"/>
</svg>
