<svg width="27" height="31" viewBox="0 0 27 31" fill="none" xmlns="http://www.w3.org/2000/svg">
<path d="M2.37609 17.1993C2.37609 19.3017 2.93687 21.2322 4.05844 22.9908C5.18001 24.7494 6.68756 26.0687 8.58111 26.9486C8.33943 26.5849 8.15994 26.2071 8.04262 25.8153C7.92531 25.4234 7.86665 25.0222 7.86665 24.6115C7.86665 23.8935 8.00859 23.2131 8.29249 22.5702C8.57641 21.9273 8.9753 21.3489 9.48916 20.835L13.3572 17.0233L17.2605 20.835C17.7743 21.3489 18.1673 21.9273 18.4395 22.5702C18.7117 23.2131 18.8478 23.8935 18.8478 24.6115C18.8478 25.0222 18.7891 25.4234 18.6718 25.8153C18.5545 26.2071 18.375 26.5849 18.1333 26.9486C20.0269 26.0687 21.5344 24.7494 22.656 22.9908C23.7776 21.2322 24.3383 19.3017 24.3383 17.1993C24.3383 15.6741 24.0562 14.2329 23.4919 12.8755C22.9276 11.5181 22.1116 10.3056 21.044 9.23797C20.4339 9.63451 19.7934 9.93192 19.1223 10.1302C18.4512 10.3285 17.7649 10.4276 17.0633 10.4276C15.1487 10.4276 13.4974 9.80228 12.1095 8.55165C10.7216 7.30102 9.93266 5.73716 9.74259 3.86006C8.55297 4.84317 7.50061 5.87616 6.58552 6.95902C5.67042 8.04188 4.90022 9.15174 4.27491 10.2886C3.64959 11.4254 3.17679 12.5734 2.85651 13.7325C2.53623 14.8916 2.37609 16.0472 2.37609 17.1993ZM13.3572 19.5785L10.7492 22.1408C10.4137 22.4763 10.1544 22.8576 9.97136 23.2847C9.78835 23.7117 9.69684 24.154 9.69684 24.6115C9.69684 25.5876 10.0552 26.4265 10.7721 27.1281C11.4889 27.8296 12.3506 28.1804 13.3572 28.1804C14.3638 28.1804 15.2255 27.8296 15.9424 27.1281C16.6592 26.4265 17.0176 25.5876 17.0176 24.6115C17.0176 24.1235 16.9261 23.6736 16.7431 23.2618C16.56 22.85 16.3008 22.4763 15.9652 22.1408L13.3572 19.5785ZM11.527 0.340424V3.10684C11.527 4.66015 12.0614 5.96357 13.1302 7.01708C14.199 8.07063 15.51 8.59741 17.0633 8.59741C17.6359 8.59741 18.1937 8.50062 18.7369 8.30705C19.2801 8.11344 19.7934 7.8348 20.2767 7.47111L21.0651 6.85168C22.6653 8.03896 23.916 9.54768 24.817 11.3779C25.718 13.2081 26.1685 15.1485 26.1685 17.1993C26.1685 20.7705 24.9261 23.7985 22.4413 26.2834C19.9565 28.7682 16.9284 30.0106 13.3572 30.0106C9.786 30.0106 6.75797 28.7682 4.27312 26.2834C1.78831 23.7985 0.545898 20.7705 0.545898 17.1993C0.545898 14.0622 1.5308 10.9943 3.5006 7.99555C5.4704 4.99685 8.14587 2.44514 11.527 0.340424Z" fill="#FF7F03"/>
</svg>
