<svg width="18" height="20" viewBox="0 0 18 20" fill="none" xmlns="http://www.w3.org/2000/svg">
<path d="M4.875 15C3.97628 15 3.26731 14.6468 2.74808 13.9404C2.22884 13.234 1.97948 12.3404 2 11.2596V11.0865L1.39615 10.1423C1.05897 9.61538 0.741975 8.87757 0.445175 7.92885C0.148392 6.98013 0 6.00385 0 5C0 3.56538 0.33205 2.37339 0.99615 1.42402C1.66025 0.474675 2.49487 0 3.5 0C4.51923 0 5.35737 0.49455 6.01442 1.48365C6.67147 2.47275 7 3.64487 7 5C7 5.87692 6.86347 6.74615 6.5904 7.6077C6.31732 8.46923 6.05513 9.18205 5.80385 9.74615L6.25385 10.4942C6.45128 10.8173 6.625 11.1785 6.775 11.5779C6.925 11.9772 7 12.3429 7 12.675C7 13.3429 6.80033 13.8974 6.40098 14.3385C6.00161 14.7795 5.49295 15 4.875 15ZM2.61538 10.1769L4.76923 9.64615C5.01154 9.11282 5.27725 8.40512 5.56635 7.52308C5.85545 6.64103 6 5.8 6 5C6 3.92308 5.76122 2.98718 5.28365 2.1923C4.80608 1.39743 4.21153 1 3.5 1C2.78847 1 2.19392 1.39743 1.71635 2.1923C1.23878 2.98718 1 3.92308 1 5C1 5.96025 1.15545 6.90865 1.46635 7.8452C1.77725 8.78173 2.16026 9.55898 2.61538 10.1769ZM4.875 14C5.20448 14 5.47436 13.8769 5.68463 13.6308C5.89488 13.3846 6 13.066 6 12.675C6 12.3917 5.92372 12.068 5.77115 11.7038C5.61858 11.3397 5.41153 10.9641 5.15 10.5769L3 11.1154C3 11.9872 3.16186 12.6859 3.48558 13.2115C3.80929 13.7372 4.27243 14 4.875 14ZM13.125 20C12.507 20 11.9984 19.7795 11.599 19.3385C11.1997 18.8974 11 18.343 11 17.675C11 17.343 11.075 16.9772 11.225 16.5779C11.375 16.1785 11.5487 15.8173 11.7462 15.4942L12.1962 14.7462C11.9577 14.1949 11.6987 13.4853 11.4192 12.6173C11.1397 11.7494 11 10.8769 11 10C11 8.64487 11.3285 7.47275 11.9856 6.48365C12.6426 5.49455 13.4808 5 14.5 5C15.5051 5 16.3398 5.47468 17.0039 6.42403C17.668 7.37339 18 8.56538 18 10C18 11.0038 17.8548 11.9728 17.5644 12.9067C17.274 13.8407 16.9538 14.584 16.6038 15.1365L16 16.0865V16.2789C16.0167 17.3211 15.7631 18.2019 15.2394 18.9212C14.7157 19.6404 14.0109 20 13.125 20ZM15.3077 15.2923C15.9039 14.3667 16.3349 13.5103 16.601 12.7231C16.867 11.9359 17 11.0282 17 10C17 8.92308 16.7612 7.98718 16.2837 7.1923C15.8061 6.39743 15.2115 6 14.5 6C13.7885 6 13.1939 6.39743 12.7163 7.1923C12.2388 7.98718 12 8.92308 12 10C12 10.8 12.1478 11.6369 12.4433 12.5106C12.7388 13.3843 13.0013 14.0962 13.2308 14.6462L15.3077 15.2923ZM13.125 19C13.7019 19 14.1587 18.7436 14.4952 18.2308C14.8317 17.718 15 17.0577 15 16.25L12.8692 15.5577C12.6974 15.868 12.5096 16.2083 12.3058 16.5788C12.1019 16.9494 12 17.3148 12 17.675C12 18.0212 12.1106 18.3285 12.3317 18.5971C12.5529 18.8657 12.8173 19 13.125 19Z" fill="#9B9E00"/>
</svg>
