<svg width="24" height="24" viewBox="0 0 24 24" fill="none" xmlns="http://www.w3.org/2000/svg">
<mask id="mask0_432_27943" style="mask-type:alpha" maskUnits="userSpaceOnUse" x="0" y="0" width="24" height="24">
<rect width="24" height="24" fill="#D9D9D9"/>
</mask>
<g mask="url(#mask0_432_27943)">
<path d="M14.9 21C14.3936 21 13.909 20.8952 13.4462 20.6856C12.9833 20.476 12.5795 20.1718 12.2346 19.7731L6.78075 13.427L7.58077 12.8173C7.84999 12.6186 8.15448 12.5109 8.49423 12.4943C8.83398 12.4776 9.1468 12.5667 9.4327 12.7616L11.5 14.0789V4.00004C11.5 3.85772 11.5478 3.73881 11.6433 3.64331C11.7388 3.5478 11.8577 3.50004 12 3.50004C12.1423 3.50004 12.2612 3.5478 12.3567 3.64331C12.4522 3.73881 12.5 3.85772 12.5 4.00004V15.9212L9.2423 13.8289C9.13975 13.7648 9.02437 13.7327 8.89615 13.7327C8.76795 13.7327 8.65257 13.7712 8.55 13.8481L8.49232 13.8866L13.0923 19.2654C13.3333 19.5487 13.575 19.742 13.8173 19.8452C14.0596 19.9484 14.384 20 14.7904 20H18.5C19.191 20 19.7837 19.7561 20.2779 19.2683C20.7721 18.7805 21.0192 18.1911 21.0192 17.5V10.6154C21.0192 10.4731 21.067 10.3542 21.1625 10.2587C21.258 10.1632 21.3769 10.1154 21.5192 10.1154C21.6615 10.1154 21.7805 10.1632 21.876 10.2587C21.9715 10.3542 22.0192 10.4731 22.0192 10.6154V17.5C22.0192 18.4718 21.6756 19.2981 20.9885 19.9789C20.3013 20.6597 19.4718 21 18.5 21H14.9ZM14.6731 12.5V7.42311C14.6731 7.28081 14.7208 7.1619 14.8163 7.06639C14.9119 6.97087 15.0308 6.92311 15.1731 6.92311C15.3154 6.92311 15.4343 6.97087 15.5298 7.06639C15.6253 7.1619 15.6731 7.28081 15.6731 7.42311V12.5H14.6731ZM17.8462 12.5V8.61541C17.8462 8.47311 17.8939 8.3542 17.9894 8.25869C18.0849 8.16317 18.2039 8.11541 18.3462 8.11541C18.4885 8.11541 18.6074 8.16317 18.7029 8.25869C18.7984 8.3542 18.8462 8.47311 18.8462 8.61541V12.5H17.8462ZM4.5 9.50004C3.65768 9.50004 2.9471 9.21382 2.36825 8.64139C1.78942 8.06895 1.5 7.37184 1.5 6.55004C1.5 6.04747 1.59648 5.6199 1.78943 5.26734C1.98238 4.91477 2.48269 4.28272 3.29038 3.37119L4.5 1.99426L5.69038 3.37696C6.50193 4.30901 7.00642 4.94619 7.20385 5.28849C7.40128 5.6308 7.5 6.05132 7.5 6.55004C7.5 7.35902 7.20962 8.05293 6.62885 8.63176C6.04808 9.21061 5.33847 9.50004 4.5 9.50004ZM4.5 8.50004C5.05768 8.50004 5.53044 8.3103 5.91828 7.93081C6.30609 7.55131 6.5 7.09105 6.5 6.55004C6.5 6.22824 6.41634 5.9292 6.24902 5.65291C6.08172 5.37665 5.64936 4.83723 4.95193 4.03466L4.48078 3.52504L4.04808 4.03466C3.38654 4.7885 2.96315 5.31541 2.7779 5.61541C2.59263 5.91541 2.5 6.22695 2.5 6.55004C2.5 7.09105 2.69295 7.55131 3.07885 7.93081C3.46475 8.3103 3.93847 8.50004 4.5 8.50004Z" fill="#F07605"/>
</g>
</svg>
