<svg width="96" height="36" viewBox="0 0 96 36" fill="none" xmlns="http://www.w3.org/2000/svg">
<path d="M60.1263 17.8234C60.0729 17.6315 59.8926 17.5016 59.6917 17.5104C59.4909 17.5193 59.3229 17.6644 59.2869 17.8603L58.403 22.6644C58.1669 23.9476 56.3704 24.1002 55.9171 22.8756L55.0109 20.428C54.9487 20.2599 54.7871 20.1481 54.6063 20.1481H52.1857C52.0057 20.1481 51.8446 20.2589 51.7818 20.426L51.6853 20.6829C51.2519 21.836 49.5852 21.7788 49.2335 20.5987L48.1005 16.7974C48.0464 16.616 47.8782 16.4915 47.6872 16.4915C47.4962 16.4914 47.3279 16.6159 47.2738 16.7973L46.5481 19.2306C46.3858 19.7747 45.8811 20.1481 45.3081 20.1481H44.3856C44.1889 20.1481 44.0172 20.28 43.9682 20.4686L42.2851 26.9492C41.9516 28.2329 40.1092 28.2301 39.7797 26.9454L33.7084 3.27499C33.6581 3.07894 33.4757 2.94478 33.2716 2.95373C33.0675 2.96268 32.8978 3.11228 32.8653 3.31196L27.7071 34.9239C27.4852 36.284 25.5474 36.3847 25.1829 35.055L21.1838 20.4631C21.1329 20.2772 20.9624 20.1481 20.7679 20.1481H18.3072C17.6914 20.1481 17.161 19.7182 17.0396 19.1204L16.0966 14.4788C16.0553 14.2751 15.8717 14.1305 15.6619 14.1364C15.4521 14.1423 15.2771 14.297 15.2475 14.5027L13.5994 25.9368C13.4108 27.2453 11.5867 27.4469 11.1113 26.2118L8.88318 20.4229C8.81951 20.2574 8.65927 20.1481 8.48045 20.1481H0.646464C0.289432 20.1481 0 19.8616 0 19.5081C0 19.1546 0.289432 18.868 0.646464 18.868H8.77743C9.31387 18.868 9.79459 19.196 9.98561 19.6923L11.7256 24.2132C11.7956 24.395 11.9809 24.5069 12.1762 24.4853C12.3715 24.4637 12.5273 24.3141 12.555 24.1215L14.322 11.8628C14.5272 10.4386 16.5829 10.3808 16.8695 11.7912L18.2376 18.5255C18.278 18.7247 18.4548 18.868 18.6601 18.868H21.0975C21.6812 18.868 22.1924 19.2552 22.3453 19.8129L25.9078 32.8117C25.961 33.0057 26.1436 33.1366 26.3463 33.1261C26.549 33.1156 26.7168 32.9664 26.7492 32.768L31.9204 1.07602C32.1442 -0.295424 34.1046 -0.38139 34.4499 0.965108L40.6178 25.012C40.6662 25.2009 40.8379 25.3333 41.0348 25.3336C41.2318 25.3339 41.4038 25.202 41.4529 25.0132L42.7992 19.8293C42.9462 19.2635 43.4614 18.868 44.0514 18.868H44.986C45.177 18.868 45.3452 18.7435 45.3993 18.5622L46.4473 15.0485C46.8122 13.8249 48.5627 13.8251 48.9274 15.0487L50.1552 19.1683C50.2 19.3188 50.3248 19.4328 50.4799 19.4651C50.6351 19.4974 50.7956 19.4427 50.8979 19.3227C51.1391 19.0397 51.4981 18.868 51.8862 18.868H54.9073C55.4498 18.868 55.9346 19.2033 56.1213 19.7076L56.5861 20.9631C56.653 21.1439 56.8339 21.2579 57.0276 21.2414C57.2213 21.225 57.3799 21.0821 57.4148 20.8928L58.353 15.7927C58.5993 14.4538 60.5063 14.37 60.8715 15.6821L64.9133 30.2041C64.9671 30.3973 65.1494 30.5275 65.3516 30.5169C65.5537 30.5063 65.7212 30.3578 65.754 30.1601L68.1594 15.6882C68.3803 14.3592 70.2578 14.2259 70.6679 15.5101L71.559 18.3594C71.6812 18.656 71.9736 18.8531 72.3015 18.8531H95.3535C95.7106 18.8531 96 19.1395 96 19.4929C96 19.8462 95.7106 20.1327 95.3535 20.1327H71.2701C70.9944 20.1327 70.749 19.9597 70.659 19.7018L70.3628 18.8532L70.3629 18.8531L70.363 18.853L70.2527 18.5118H70.251L70.2309 18.4445L70.1837 18.2986C70.1767 18.2771 70.1716 18.2555 70.1682 18.234L69.9786 17.5979C69.9185 17.4096 69.7358 17.2868 69.5369 17.3009C69.3379 17.315 69.1748 17.4624 69.1424 17.6572L66.7109 32.2868C66.4857 33.6415 64.557 33.7426 64.1886 32.419L60.1263 17.8234Z" fill="#E82927"/>
</svg>
