<svg width="19" height="19" viewBox="0 0 19 19" fill="none" xmlns="http://www.w3.org/2000/svg">
<path d="M9.57693 16C9.37051 16 9.1907 15.9234 9.0375 15.7702C8.88428 15.617 8.80768 15.4372 8.80768 15.2308V11.3846C8.80768 11.1782 8.88428 10.9984 9.0375 10.8452C9.1907 10.692 9.37051 10.6154 9.57693 10.6154H11.9231C12.1295 10.6154 12.3093 10.692 12.4625 10.8452C12.6157 10.9984 12.6923 11.1782 12.6923 11.3846V15.2308C12.6923 15.4372 12.6157 15.617 12.4625 15.7702C12.3093 15.9234 12.1295 16 11.9231 16H9.57693ZM9.6923 15.1154H11.8077V11.5H9.6923V15.1154ZM14.1923 18.6923V16.3269C14.1923 16.1077 14.2657 15.9247 14.4125 15.7779C14.5593 15.6311 14.7423 15.5577 14.9615 15.5577H17.2308V14.1923H14.1923V13.3077H17.3462C17.5654 13.3077 17.7484 13.3811 17.8952 13.5279C18.042 13.6747 18.1154 13.8577 18.1154 14.0769V15.6731C18.1154 15.8923 18.042 16.0753 17.8952 16.2221C17.7484 16.3689 17.5654 16.4423 17.3462 16.4423H15.0769V17.8077H18.1154V18.6923H14.1923ZM6.42308 17.9692C4.55256 17.8256 3.01442 17.0779 1.80865 15.726C0.602883 14.374 0 12.7321 0 10.8C0 9.3641 0.579167 7.77596 1.7375 6.03558C2.89583 4.2952 4.65 2.3859 7 0.307678C8.67437 1.77691 10.0484 3.17819 11.1221 4.51153C12.1958 5.84488 12.9628 7.08463 13.4231 8.23078H12.3673C11.9237 7.27053 11.2558 6.24104 10.3635 5.1423C9.47116 4.04359 8.35 2.87949 7 1.65C5.01667 3.46667 3.52083 5.14167 2.5125 6.675C1.50417 8.20834 1 9.58334 1 10.8C1 12.4769 1.50417 13.8875 2.5125 15.0317C3.52083 16.176 4.82436 16.8199 6.42308 16.9635V17.9692Z" fill="#194BCB"/>
</svg>
