<svg width="98" height="19" viewBox="0 0 98 19" fill="none" xmlns="http://www.w3.org/2000/svg">
<path d="M1 15.1889C1 15.1889 4.78424 14.5982 9.08671 16.0172C17.2697 18.7159 17.7365 13.7739 20.7709 11.3909C23.547 9.21077 25.8461 10.5409 28.9371 13.2071C31.2168 15.1735 34.5393 18.4743 37.98 17.9429C41.1252 17.4571 43.3548 13.5858 47.7144 12.6012C51.1696 11.8209 53.9776 13.9646 57.9563 13.2071C63.3537 12.1794 65.7647 6.12932 69.6222 6.12932C74.3833 6.12932 77.7354 1 82.0667 1C86.3723 1 86.6012 4.02126 91.3111 6.12932C94.9119 7.74095 97 6.12932 97 6.12932" stroke="#194BCB" stroke-width="1.84723" stroke-linecap="round" stroke-linejoin="round"/>
</svg>
