<svg width="100" height="71" viewBox="0 0 100 71" fill="none" xmlns="http://www.w3.org/2000/svg">
<path opacity="0.18" d="M21.1194 7.06005C18.3166 7.66475 15.4032 8.32101 13.153 10.1269C11.253 11.6504 8.29237 14.4629 7.39532 16.7482C3.59522 26.4011 7.89163 38.1471 16.2311 44.1542C20.1533 46.9797 25.0416 48.3473 28.5665 51.6732C30.7959 53.7767 32.3574 56.5612 34.7295 58.4948C38.1957 61.3179 42.8756 61.9425 47.3044 62.2449C50.3814 62.457 53.578 62.5484 56.4327 61.3577C58.4963 60.4976 60.2443 59.0221 61.9601 57.5678L73.327 47.9078C75.1534 46.3574 76.8611 43.8882 79.2391 43.9046C100.642 44.0605 102.085 18.4275 69.2368 7.07411C66.3418 6.07331 64.3565 3.29121 61.6366 1.86501C56.0182 -1.08232 49.5522 -0.127223 43.8855 1.91189C36.6906 4.50765 28.5861 5.444 21.1194 7.06005Z" fill="#68E1FD"/>
<path d="M34.7608 21.8551C34.8999 22.2836 35.0272 22.7158 35.1428 23.1517C35.2011 23.3696 35.2554 23.5889 35.3039 23.8106C35.3285 23.9213 35.3502 24.0332 35.3691 24.1463C35.3768 24.2039 35.3886 24.2592 35.3926 24.3188L35.4002 24.4071L35.4105 24.4795C35.4585 24.6757 35.5773 24.8469 35.7438 24.96C35.9188 25.09 36.1048 25.2043 36.2997 25.3017C36.3555 25.3305 36.409 25.3635 36.4598 25.4004L36.4821 25.4176C36.4941 25.4299 36.5052 25.4431 36.5153 25.4571C36.5291 25.4755 36.54 25.496 36.5476 25.5179C36.5595 25.5482 36.5698 25.5791 36.5786 25.6105C36.6189 25.7421 36.6213 25.8825 36.5855 26.0154C36.5641 26.0863 36.5288 26.1521 36.4817 26.2091C36.4346 26.2661 36.3766 26.3131 36.3113 26.3473C36.1944 26.405 36.0684 26.4417 35.9389 26.4558L36.068 26.3064C36.085 26.6203 36.0848 26.9293 36.0789 27.2413C36.0717 27.5526 36.0554 27.8645 36.0215 28.1771C35.9923 28.4959 35.9297 28.8108 35.835 29.1165C35.7832 29.2837 35.703 29.4407 35.5978 29.5803C35.5336 29.6623 35.4508 29.7276 35.3563 29.7708C35.2536 29.8158 35.1399 29.8291 35.0297 29.8088L35.0681 29.8118L33.5492 29.866L33.561 29.5119C34.0658 29.5919 34.5524 29.762 34.9977 30.0141C35.44 30.2558 35.8438 30.5629 36.1955 30.925C36.2853 31.0127 36.3626 31.1123 36.4465 31.2054L36.5697 31.3474L36.6794 31.4999C36.7516 31.6022 36.8271 31.7021 36.8962 31.806L37.0849 32.1296L37.1787 32.2913L37.2571 32.461L37.4135 32.7998C37.5076 33.0296 37.5825 33.2668 37.6674 33.4993L37.6238 33.4468C38.2853 33.8575 38.8902 34.3541 39.4227 34.9237C39.9585 35.4882 40.4084 36.1293 40.7576 36.8261C40.9275 37.1774 41.0674 37.5426 41.1757 37.9177C41.2793 38.295 41.352 38.6802 41.393 39.0694C41.4594 39.8523 41.4002 40.6408 41.2177 41.4049L41.2008 41.3045C41.7729 42.134 42.3404 42.9666 42.9034 43.8021L44.5911 46.3098L44.5931 46.3127C44.6116 46.3402 44.6223 46.3723 44.6241 46.4055C44.6259 46.4387 44.6187 46.4718 44.6033 46.5012C43.9551 47.7212 43.18 48.8687 42.2909 49.9243C41.416 50.9864 40.4416 51.9615 39.3812 52.8364L38.9869 53.1674L38.574 53.4749C38.2964 53.6765 38.0282 53.891 37.7432 54.0815C37.1659 54.4518 36.6025 54.8436 35.9923 55.1573C34.7938 55.8169 33.5359 56.3613 32.2356 56.7833L32.2321 56.7845C32.2222 56.7878 32.2116 56.7883 32.2014 56.7858C32.1913 56.7833 32.182 56.778 32.1748 56.7704L31.1891 55.7353C31.1873 55.7335 31.1859 55.7312 31.1849 55.7288C31.184 55.7264 31.1835 55.7238 31.1836 55.7212C31.1837 55.7186 31.1842 55.716 31.1853 55.7136C31.1863 55.7112 31.1878 55.709 31.1897 55.7072C31.1935 55.7038 31.1985 55.7019 31.2036 55.702C31.2087 55.7021 31.2137 55.7041 31.2174 55.7076L32.2571 56.6807L32.1963 56.6678L33.1348 56.2755C33.4508 56.1546 33.7605 56.0173 34.0625 55.8643L34.9694 55.4091C35.1212 55.3348 35.2691 55.2525 35.4121 55.1623L35.8477 54.9025C36.4402 54.5764 36.9882 54.1787 37.5474 53.8008C37.8236 53.6067 38.0829 53.3889 38.3513 53.1844L38.7503 52.8728L39.1305 52.5379C39.3796 52.3101 39.6471 52.103 39.8855 51.8634L40.6123 51.1581L41.3028 50.4171C41.5319 50.1692 41.7449 49.9067 41.9669 49.6523C42.8378 48.6235 43.606 47.5111 44.2604 46.3312L44.2726 46.5226L42.6255 43.9878C42.0783 43.1417 41.5342 42.2935 40.9933 41.4432L40.991 41.4397C40.982 41.4254 40.9761 41.4094 40.9736 41.3927C40.971 41.3761 40.972 41.359 40.9763 41.3427C41.1791 40.6081 41.2608 39.845 41.2179 39.0838C41.1911 38.7033 41.13 38.3261 41.0355 37.9566C40.9335 37.5885 40.8006 37.2297 40.6381 36.8842C40.3064 36.1929 39.8649 35.5605 39.331 35.0117C38.8039 34.459 38.1994 33.9865 37.5367 33.6092C37.5181 33.5989 37.5035 33.5825 37.4955 33.5627L37.4929 33.5566C37.4013 33.3328 37.3201 33.1047 37.2207 32.8855L37.0572 32.5636L36.9757 32.4029L36.8795 32.2508L36.6876 31.9471C36.6177 31.8501 36.5421 31.7574 36.4698 31.6625L36.3605 31.521L36.2384 31.3905C36.1555 31.3052 36.0794 31.2133 35.9914 31.1336C35.6474 30.8075 35.2601 30.5311 34.8405 30.3121C34.429 30.0926 33.9849 29.9417 33.5254 29.8652L33.5169 29.8639C33.4733 29.8574 33.4337 29.8347 33.4059 29.8003C33.3782 29.766 33.3641 29.7224 33.3667 29.6782C33.3692 29.6339 33.3881 29.5923 33.4197 29.5614C33.4513 29.5304 33.4932 29.5125 33.5372 29.5111L35.0563 29.4619C35.0648 29.4616 35.0733 29.462 35.0817 29.463L35.0948 29.4648C35.1404 29.4723 35.1871 29.4663 35.2293 29.4476C35.2716 29.4289 35.3075 29.3983 35.3329 29.3595C35.4123 29.2526 35.4733 29.133 35.5134 29.0058C35.602 28.7232 35.6634 28.4326 35.6966 28.1382C35.7666 27.5343 35.7949 26.9263 35.7813 26.3184L35.7813 26.3164C35.781 26.2802 35.794 26.2451 35.8178 26.2179C35.8416 26.1907 35.8746 26.1732 35.9104 26.1689C36.0042 26.1619 36.0962 26.1395 36.1828 26.1026C36.218 26.0868 36.2496 26.0638 36.2757 26.0352C36.3017 26.0065 36.3215 25.9728 36.334 25.9361C36.3586 25.851 36.359 25.7606 36.3351 25.6753C36.3295 25.6522 36.3227 25.6291 36.3151 25.6073C36.312 25.5982 36.3045 25.5797 36.3087 25.5941C36.3101 25.5972 36.3126 25.5995 36.3156 25.6008L36.3046 25.5924C36.2652 25.5627 36.2238 25.5357 36.1809 25.5115C35.9785 25.401 35.7862 25.2729 35.6062 25.1285C35.5123 25.051 35.4295 24.961 35.36 24.8609C35.2846 24.757 35.2362 24.6358 35.2191 24.5084C35.1885 24.0612 35.1228 23.6172 35.0226 23.1805C34.9297 22.7414 34.8282 22.3032 34.7228 21.8661C34.7216 21.8611 34.7223 21.8558 34.7248 21.8513C34.7274 21.8468 34.7316 21.8435 34.7365 21.8421C34.7415 21.8407 34.7467 21.8412 34.7513 21.8436C34.7558 21.8461 34.7592 21.8502 34.7608 21.8551Z" fill="black"/>
<path d="M22.8637 29.3682C21.5091 29.8181 20.2607 30.5176 19.1897 31.4268C18.1308 32.3344 17.2902 33.4491 16.7251 34.6947C16.5835 35.0032 16.4597 35.3189 16.3543 35.6403C16.2582 35.9576 16.1538 36.2997 16.0425 36.6245C15.8191 37.279 15.5787 37.9251 15.336 38.5706C14.8487 39.8608 14.3482 41.1457 13.8345 42.4254L13.7642 42.1989C14.3754 42.5893 15.0564 42.8698 15.7736 43.0265C16.5014 43.195 17.2428 43.3049 17.9899 43.3551C18.7413 43.408 19.495 43.4245 20.2482 43.4045C21.001 43.383 21.7591 43.3454 22.5043 43.2678L22.5102 43.2672C22.5426 43.2639 22.5752 43.2706 22.6033 43.2863C22.6314 43.302 22.6534 43.3259 22.6661 43.3545C23.2211 44.5895 23.8604 45.7885 24.58 46.9438C25.2853 48.1095 26.0692 49.2318 26.8822 50.3358C25.9985 49.2797 25.1743 48.1798 24.413 47.0405C23.6532 45.8958 22.9753 44.7037 22.3837 43.4722L22.5455 43.5589C21.787 43.6567 21.0236 43.7171 20.2585 43.7396C19.4932 43.7662 18.7269 43.7556 17.9627 43.7079C17.1934 43.6624 16.4294 43.5553 15.6789 43.3876C14.91 43.227 14.1796 42.9301 13.5259 42.5122C13.4895 42.4876 13.4627 42.452 13.4499 42.4112C13.437 42.3704 13.4388 42.3267 13.455 42.287L13.4557 42.2856C13.9775 41.0115 14.4885 39.733 14.9886 38.4502C15.2364 37.8086 15.4819 37.1658 15.7088 36.5198C15.8251 36.1951 15.918 35.8787 16.0327 35.5414C16.6255 33.891 17.6707 32.4215 19.0601 31.2854C19.8979 30.6263 20.837 30.0936 21.8444 29.7059C22.0105 29.6394 22.1799 29.581 22.3522 29.5309L22.8637 29.3682Z" fill="black"/>
<path d="M17.7412 37.4325C18.2663 37.8032 18.7798 38.1943 19.2756 38.6131C19.5239 38.822 19.7657 39.0409 19.9973 39.2748C20.2392 39.5052 20.4489 39.7725 20.6199 40.0684L22.5527 43.5676C22.5788 43.6152 22.5865 43.672 22.5741 43.7257C22.5617 43.7794 22.5302 43.8256 22.4865 43.8542C22.4428 43.8827 22.3905 43.8913 22.341 43.878C22.2915 43.8647 22.2489 43.8306 22.2224 43.7832L22.2175 43.7737L20.4521 40.1711C20.3027 39.8818 20.1154 39.6175 19.8961 39.3866C19.6803 39.1451 19.4511 38.9149 19.2144 38.6939C18.7418 38.2506 18.248 37.8318 17.7412 37.4325Z" fill="black"/>
<path d="M27.9438 37.4869C27.907 38.0876 27.8619 38.6872 27.8083 39.2858C27.7553 39.8844 27.6969 40.4823 27.633 41.0795C27.5718 41.6771 27.5002 42.2733 27.4313 42.8698C27.3588 43.4659 27.2807 44.0613 27.1878 44.6547L27.0732 44.4827C27.7712 44.6819 28.4858 44.8511 29.2014 44.9981C29.9187 45.1407 30.644 45.2381 31.373 45.2897C32.0998 45.3421 32.8296 45.3316 33.5546 45.2582C33.9127 45.2192 34.2678 45.1552 34.6173 45.0666C34.961 44.9862 35.2925 44.859 35.603 44.6883L35.5163 44.8088C35.6725 43.8765 35.841 42.947 36.0072 42.0166C36.177 41.087 36.3622 40.1602 36.5628 39.2363C36.6625 38.7741 36.7693 38.3133 36.8796 37.8521C36.9357 37.6226 36.9976 37.3906 37.0606 37.162C37.1214 36.9395 37.1769 36.7141 37.224 36.4856C37.3193 36.0289 37.3901 35.5641 37.4428 35.0966C37.5029 34.6297 37.543 34.1594 37.5763 33.6883C37.5765 33.6857 37.5771 33.6831 37.5782 33.6807C37.5792 33.6783 37.5808 33.6762 37.5827 33.6744C37.5846 33.6726 37.5868 33.6713 37.5892 33.6704C37.5917 33.6695 37.5942 33.6691 37.5968 33.6692C37.6016 33.6695 37.6062 33.6717 37.6096 33.6752C37.6131 33.6787 37.6151 33.6833 37.6155 33.6883C37.6611 34.6389 37.6201 35.5918 37.4928 36.5346C37.462 36.7719 37.4162 37.0079 37.3633 37.2434C37.3119 37.4728 37.2633 37.6996 37.2181 37.9312L36.9488 39.3184C36.7719 40.2448 36.5963 41.172 36.4094 42.0972L35.8491 44.873L35.8476 44.8803C35.8426 44.9045 35.8324 44.9273 35.8176 44.9469C35.8029 44.9664 35.784 44.9824 35.7624 44.9935C35.0735 45.3109 34.3276 45.4791 33.5719 45.4873C32.8351 45.5126 32.0974 45.4888 31.3636 45.4163C30.6317 45.3519 29.9029 45.2629 29.1752 45.1608C28.4459 45.063 27.7221 44.9434 26.9972 44.7872C26.962 44.7796 26.9307 44.7591 26.9094 44.7295C26.8881 44.6998 26.8781 44.6633 26.8815 44.6267L26.8826 44.6152C26.9379 44.0168 27.008 43.4204 27.0837 42.8247C27.163 42.2295 27.2396 41.634 27.3266 41.0398C27.41 40.4451 27.4998 39.8513 27.5959 39.2582C27.6915 38.6651 27.7945 38.073 27.9049 37.4818C27.9059 37.4768 27.9087 37.4724 27.9127 37.4694C27.9167 37.4664 27.9217 37.4651 27.9267 37.4658C27.9316 37.4664 27.9361 37.469 27.9393 37.4729C27.9425 37.4768 27.9441 37.4818 27.9438 37.4869Z" fill="black"/>
<path d="M34.9467 21.3405C34.9467 21.3405 28.5616 17.9306 26.1152 20.9152C26.1152 20.9152 24.9763 22.4053 25.0147 23.8114C25.0531 25.2176 25.4136 26.0743 21.4323 30.4508C17.451 34.8272 26.575 33.6216 27.2929 33.1704C28.0109 32.7192 30.2859 29.6308 31.685 29.433C33.084 29.2351 31.6827 27.2953 31.6827 27.2953C31.6827 27.2953 30.0879 27.5252 30.1256 25.8195C30.1632 24.1137 31.7004 24.8595 31.7004 24.8595C31.7004 24.8595 34.1136 25.7995 34.9467 21.3405Z" fill="#0A1B4C"/>
<path d="M32.2578 28.8306C32.4626 28.923 32.6191 29.0216 32.7861 29.1092C32.8676 29.1538 32.9508 29.1943 33.0374 29.2338C33.1324 29.2732 33.2312 29.3083 33.3331 29.3389C33.2156 29.3718 33.0851 29.3772 32.9626 29.354C32.842 29.3312 32.7294 29.2924 32.6315 29.2397C32.537 29.1881 32.4556 29.1265 32.3905 29.0573C32.3226 28.989 32.2774 28.9117 32.2578 28.8306Z" fill="black"/>
<path d="M31.7197 29.4428C31.9905 29.3524 32.2658 29.3441 32.5377 29.4181C32.8105 29.4739 33.0782 29.6127 33.3326 29.8304C33.0619 29.9219 32.7865 29.9302 32.5147 29.855C32.242 29.7984 31.9743 29.6597 31.7197 29.4428Z" fill="black"/>
<path d="M35.041 25.6047C35.0984 25.6996 35.1617 25.792 35.2304 25.8814C35.2582 25.9175 35.2908 25.9508 35.3275 25.9807C35.3678 26.017 35.4207 26.0506 35.4839 26.1046C35.4471 26.1229 35.4064 26.1348 35.3641 26.1398C35.3218 26.1447 35.2787 26.1426 35.2374 26.1334C35.148 26.1154 35.0697 26.0702 35.0178 26.0064C34.9676 25.9447 34.9427 25.871 34.9467 25.7964C34.9484 25.7248 34.9821 25.6564 35.041 25.6047Z" fill="black"/>
<path d="M34.9463 27.2177C35.1383 27.246 35.3262 27.3077 35.5047 27.4008C35.6791 27.4876 35.8332 27.5785 36.0216 27.6897C35.9261 27.7449 35.8202 27.7659 35.7157 27.7502C35.6151 27.7391 35.5163 27.7098 35.4224 27.6633C35.33 27.6175 35.2425 27.5577 35.1618 27.4853C35.0775 27.4132 35.0045 27.3225 34.9463 27.2177Z" fill="black"/>
<path d="M42.7626 48.7227C43.0374 48.9504 43.3024 49.1859 43.5481 49.433L43.3024 49.763C43.0935 50.041 42.9 50.3306 42.6698 50.5911L42.0082 51.3922C41.7953 51.6682 41.5458 51.9095 41.3136 52.1643L40.9615 52.5465C40.8474 52.6774 40.7267 52.8024 40.5998 52.9209L40.3135 53.1951C40.1529 52.9692 39.9981 52.7356 39.8511 52.4982C39.9923 52.7414 40.1393 52.9808 40.2922 53.2143L39.8511 53.639C38.8332 54.5766 37.7302 55.4179 36.5565 56.1522C36.2586 56.3279 35.9664 56.5132 35.6569 56.6695L35.1984 56.9165L34.7264 57.1366C34.0991 57.4388 33.445 57.6817 32.7724 57.8624C32.5762 57.4106 32.4044 56.9486 32.2578 56.4784C37.6379 54.6446 41.0215 51.066 42.7626 48.7227Z" fill="#563C00"/>
<path d="M44.3431 46.5723L45.1622 47.2647C44.791 47.8145 44.452 48.381 44.0843 48.9272L43.847 49.2604C43.5858 49.0568 43.306 48.88 43.0117 48.7328C43.5107 48.0508 43.9559 47.3283 44.3431 46.5723Z" fill="#563C00"/>
<path d="M67.1471 62.1636C61.0052 61.8147 55.9131 61.5222 55.9131 61.5222C57.1265 60.2157 58.1777 58.7598 59.0429 57.1876C59.9143 55.6161 60.6365 53.9619 61.1995 52.2481C61.7641 50.5372 62.1958 48.7829 62.4906 47.0019C62.5142 46.8587 62.5357 46.7155 62.5593 46.5723C62.5848 47.3226 62.6162 48.0749 62.6437 48.8272C62.6829 49.8216 62.7339 50.818 62.781 51.8124L62.94 54.7955L63.1146 57.7787C63.1176 57.8234 63.1354 57.8658 63.165 57.8988C63.1946 57.9318 63.2343 57.9535 63.2775 57.9602H63.2795C64.1762 58.0852 65.0788 58.182 65.9854 58.2284C66.2444 58.2425 66.5054 58.2526 66.7644 58.2607C66.9803 58.7064 67.3433 59.8319 67.1471 62.1636Z" fill="#DB7110"/>
<path d="M68.8172 58.0464C67.9953 58.0605 67.174 58.0438 66.3534 57.9964C65.4997 57.9483 64.6459 57.8722 63.7961 57.7621L63.5931 54.9652L63.3643 52.006C63.2827 51.021 63.2031 50.036 63.1115 49.0509C63.0359 48.2501 62.9643 47.4493 62.8866 46.6484C63.1347 45.0826 63.2552 43.499 63.2469 41.9134C63.1792 42.8023 63.0817 43.6873 62.9444 44.5682C62.817 45.4471 62.6618 46.324 62.4846 47.1929C62.3035 48.0639 62.1065 48.9288 61.8737 49.7837C61.6468 50.6426 61.394 51.4915 61.1035 52.3284C60.8209 53.1692 60.5084 53.9982 60.1582 54.811C59.993 55.2214 59.8 55.6219 59.6169 56.0243C59.4199 56.4207 59.2328 56.8211 59.0218 57.2115C58.196 58.7847 57.2238 60.2757 56.1182 61.6643C50.6076 66.0088 46.2512 67.2862 42.856 66.9518C42.8918 66.4773 42.9058 66.0028 42.9217 65.5303C42.922 65.5067 42.9134 65.4838 42.8978 65.4662L42.8898 65.4563C42.4938 65.0438 42.0925 64.6354 41.6858 64.2309C41.2778 63.8285 40.8666 63.4308 40.4519 63.0377C40.04 62.6393 39.6161 62.2569 39.1962 61.8664C38.7723 61.482 38.3464 61.0997 37.9145 60.7252L37.9046 60.7173C37.8807 60.6963 37.8504 60.6844 37.8187 60.6837C37.7871 60.6829 37.7562 60.6934 37.7314 60.7133C37.1324 61.1958 36.5354 61.6822 35.9582 62.1968C36.5851 61.8224 37.1941 61.42 37.7991 61.0136C38.1732 61.396 38.5553 61.7703 38.9374 62.1448C39.3534 62.5392 39.7614 62.9396 40.1833 63.326C40.6012 63.7164 41.0244 64.1015 41.453 64.4812C41.8709 64.8536 42.2934 65.2213 42.7207 65.5844C42.7605 66.0389 42.7983 66.4953 42.856 66.9518C36.9215 66.3692 33.9144 60.8674 32.7959 58.2006C34.2234 57.9425 35.5945 57.4328 36.8458 56.695C38.1055 55.9692 39.2798 55.1028 40.3464 54.1123L40.7544 53.7138C41.1986 54.3639 41.693 54.9778 42.2331 55.5498C43.0669 56.4227 44.0182 57.2195 45.1506 57.6981C45.7167 57.9415 46.321 58.0825 46.9358 58.1145C47.5547 58.1273 48.1703 58.0199 48.7487 57.7982L49.1747 57.618C49.31 57.5479 49.4433 57.4678 49.5767 57.3918L49.7777 57.2776L49.9647 57.1435L50.3389 56.8732C50.5737 56.675 50.8046 56.4728 51.0275 56.2626C51.2344 56.0383 51.4554 55.8241 51.6504 55.5899C51.8414 55.3516 52.0404 55.1173 52.2235 54.8731L52.7489 54.1243C53.0813 53.6177 53.4057 53.1093 53.73 52.5967C54.3768 51.5756 55.0144 50.5478 55.6426 49.5134C56.9043 47.4493 58.1282 45.363 59.3959 43.3109C60.0268 42.2818 60.6696 41.2607 61.3701 40.2897C61.7151 39.8043 62.0921 39.3427 62.4986 38.9082C62.6988 38.6976 62.9172 38.5053 63.1513 38.3336C63.3671 38.1623 63.619 38.0431 63.8877 37.9853C64.013 37.9628 64.1415 37.9655 64.2658 37.9933C64.3287 38.0044 64.3897 38.0247 64.4469 38.0533C64.5038 38.0743 64.5574 38.1033 64.6061 38.1394C64.8094 38.3273 64.9755 38.5521 65.0957 38.8021C65.3604 39.334 65.5788 39.888 65.7484 40.4578C66.1047 41.603 66.3793 42.7803 66.6361 43.9595C67.1376 46.322 67.5276 48.7126 67.8819 51.1051C68.2341 53.4135 68.5346 55.728 68.8172 58.0464Z" fill="#DB7110"/>
<path d="M74.1899 53.55C74.184 53.9853 74.1722 54.4207 74.1585 54.8561C74.127 55.6916 74.0956 56.5271 74.0582 57.3606C73.2054 57.5057 72.3466 57.6215 71.4859 57.7019C70.5937 57.7901 69.6957 57.8431 68.7996 57.8588C68.7151 57.8607 68.6306 57.8607 68.548 57.8627C68.1604 53.2142 67.5373 48.5883 66.6812 44.0027C66.459 42.8318 66.1763 41.6731 65.8342 40.5313C65.6623 39.9528 65.4414 39.3898 65.1739 38.8486C65.0342 38.5584 64.8385 38.2985 64.5981 38.0837C64.5276 38.0295 64.4495 37.9859 64.3662 37.9543C64.2898 37.9161 64.2085 37.8884 64.1245 37.872C63.9566 37.8348 63.783 37.8308 63.6136 37.8602C63.2946 37.9225 62.9945 38.0581 62.7372 38.2564C62.487 38.4365 62.2535 38.6386 62.0395 38.8604C61.6229 39.2955 61.2368 39.7588 60.884 40.247C60.1746 41.21 59.532 42.2121 58.9032 43.2202C57.6573 45.2461 56.4605 47.2936 55.2264 49.3196C54.6114 50.3316 53.9878 51.3396 53.3556 52.3438L52.3986 53.8422L51.9014 54.5678C51.7285 54.8051 51.5399 55.0306 51.361 55.2621C51.1744 55.4876 50.9661 55.6936 50.7715 55.9113C50.5612 56.1153 50.3431 56.3094 50.123 56.4997L49.7713 56.7585L49.5964 56.888L49.4077 56.9978C49.2819 57.0704 49.1581 57.1468 49.0304 57.2155L48.6334 57.3901C48.0944 57.6035 47.5194 57.712 46.9395 57.7097C46.3572 57.6875 45.7833 57.5641 45.2436 57.3449C44.149 56.9193 43.1999 56.1721 42.3647 55.3445C41.9455 54.9263 41.5524 54.4829 41.1876 54.0167C41.0756 53.8755 40.9675 53.7323 40.8594 53.5892L41.1954 53.2616C41.3251 53.1385 41.4484 53.0089 41.5649 52.8733L41.9225 52.4733C42.3997 51.9424 42.849 51.3873 43.2686 50.8101C43.4927 50.5336 43.6813 50.2296 43.8778 49.9335L44.0803 49.6216C44.2351 49.7836 44.3795 49.9552 44.5126 50.1355C44.7055 50.3909 44.8629 50.6713 44.9803 50.969C45.1016 51.2593 45.1708 51.5687 45.1846 51.8829C45.2012 52.5222 45.0509 53.1548 44.7484 53.7186C44.4427 54.3069 44.0623 54.8534 43.6165 55.3445C44.1807 54.9539 44.6573 54.4503 45.0157 53.8657C45.4007 53.2693 45.5959 52.5706 45.5757 51.8614C45.5266 51.148 45.2363 50.4724 44.7523 49.9452C44.5875 49.7556 44.4067 49.5804 44.2119 49.4216L44.4615 49.0392C44.6442 48.7352 44.8073 48.4175 44.9803 48.1076C45.1532 47.7977 45.3222 47.4859 45.4873 47.1721L46.9552 48.3664C46.4837 48.7768 46.1047 49.2821 45.843 49.8491C46.0814 49.6481 46.2945 49.4189 46.4777 49.1666C46.668 48.9197 46.8283 48.6511 46.9552 48.3664C58.7578 34.8791 63.0457 31.3646 67.4751 32.9454C71.873 34.5143 74.1388 52.0104 74.1683 52.2438V52.2457C74.2037 52.6811 74.1899 53.1145 74.1899 53.55Z" fill="#DB7110"/>
<path d="M88.5428 63.2389C88.1295 63.2486 81.7254 62.9118 74.7461 62.5324C72.4301 60.5019 72.5256 58.6418 72.6153 58.0978C73.2547 58.0088 73.8916 57.8991 74.5258 57.7688L74.5316 57.7669C74.5593 57.7607 74.5841 57.7455 74.6021 57.7238C74.6201 57.7021 74.6303 57.675 74.6311 57.6469C74.6389 56.7855 74.6428 55.9261 74.6252 55.0647C74.6174 54.6331 74.6077 54.2034 74.5921 53.7717C74.5801 53.3418 74.5456 52.9128 74.4887 52.4865L88.344 55.7364C89.0263 57.2752 88.5428 63.2389 88.5428 63.2389Z" fill="#DB7110"/>
<path d="M74.6347 62.5845C75.0004 62.8977 75.3828 63.1853 75.7739 63.4578C76.166 63.729 76.5729 63.9747 76.9829 64.213C77.3937 64.4504 77.8164 64.6639 78.2408 64.8728C78.6649 65.0829 79.0959 65.2769 79.527 65.4722L79.5349 65.4758C79.5454 65.4806 79.5544 65.4885 79.5607 65.4986C79.5671 65.5088 79.5705 65.5206 79.5706 65.5328C79.5626 65.6909 79.5119 65.8432 79.4247 65.9717C79.3374 66.1001 79.2172 66.1993 79.0784 66.2574C78.8225 66.3737 78.549 66.4402 78.2709 66.4536C77.9975 66.4722 77.7232 66.4675 77.4505 66.4396C77.1779 66.4204 76.9071 66.3815 76.6377 66.3361C75.5611 66.1438 74.5001 65.8634 73.4642 65.4974C72.427 65.1385 71.4055 64.7315 70.4006 64.2841C70.147 64.175 69.8994 64.0567 69.6492 63.966C69.3969 63.8731 69.1374 63.8037 68.8738 63.7584C68.6095 63.7129 68.3421 63.6909 68.0744 63.6923C67.8079 63.6935 67.5348 63.7203 67.2635 63.7359L67.2609 63.7361C67.2539 63.7365 67.247 63.7354 67.2404 63.733C67.2339 63.7305 67.2278 63.7267 67.2227 63.7218C67.2175 63.7169 67.2133 63.7109 67.2103 63.7043C67.2073 63.6976 67.2055 63.6904 67.2051 63.683C67.2049 63.6779 67.2053 63.6728 67.2063 63.6679C67.3126 63.1744 67.395 62.6754 67.4532 62.1729C67.4535 62.1702 67.4548 62.1678 67.4567 62.1661C67.4587 62.1643 67.4612 62.1635 67.4638 62.1637C67.4663 62.164 67.4687 62.1652 67.4703 62.1673C67.472 62.1693 67.4729 62.172 67.4727 62.1747C67.4495 62.6831 67.3957 63.1893 67.3116 63.6904L67.2544 63.6224C67.5254 63.5935 67.7934 63.5535 68.0711 63.5384C68.3476 63.5276 68.6244 63.5419 68.8986 63.581C69.1736 63.6198 69.4448 63.6838 69.7094 63.7723C69.9769 63.8604 70.225 63.9829 70.4767 64.0874C71.4846 64.5178 72.495 64.9415 73.5208 65.3183C74.5402 65.7148 75.586 66.0304 76.6494 66.2626C77.1808 66.376 77.724 66.4143 78.2648 66.3765C78.5315 66.3593 78.7922 66.2861 79.032 66.1612C79.1457 66.0986 79.2451 66.0103 79.3233 65.9027C79.3969 65.8013 79.4356 65.6764 79.4332 65.5484L79.4767 65.6089C78.5893 65.2678 77.7301 64.8493 76.9078 64.3578C76.4955 64.1137 76.0964 63.8452 75.7124 63.5537C75.3276 63.2642 74.9632 62.9455 74.6218 62.6001C74.6199 62.5983 74.6188 62.5957 74.6187 62.593C74.6186 62.5903 74.6195 62.5877 74.6212 62.5857C74.6228 62.5837 74.6252 62.5824 74.6277 62.5822C74.6303 62.582 74.6327 62.5828 74.6347 62.5845Z" fill="black"/>
<path d="M72.0429 69.6904L66.1289 69.4843L67.2275 68.0775C67.6095 68.1797 67.9996 68.2657 68.3918 68.3371C68.784 68.4101 69.1783 68.4734 69.5787 68.5221C69.9791 68.5724 70.383 68.6033 70.7882 68.6146C71.1851 68.632 71.5832 68.6096 71.973 68.5481C71.9245 68.7255 71.9052 68.9071 71.9155 69.0884C71.9196 69.293 71.9625 69.4959 72.0429 69.6904Z" fill="#563C00"/>
<path d="M73.6559 67.54L73.5981 68.2813L72.0729 69.6906C72.139 69.4348 72.1663 69.1711 72.1542 68.9076C72.1476 68.6722 72.1102 68.4385 72.043 68.2123L72.0494 68.2102L72.8558 67.8866C73.1232 67.7697 73.3927 67.6612 73.6559 67.54Z" fill="#563C00"/>
<path d="M86.5302 69.7498C84.8478 70.8361 79.3117 69.9064 77.4365 68.6158C76.8743 68.2371 76.2326 67.9758 75.5543 67.8493C74.876 67.7229 74.1768 67.7343 73.5036 67.8827C73.2377 67.9515 72.9739 68.0335 72.7101 68.1099L71.9328 68.3523C71.5479 68.4053 71.1581 68.42 70.7699 68.3963C70.3763 68.3791 69.9839 68.3454 69.5929 68.2951C69.2012 68.2493 68.8096 68.1971 68.4179 68.1385L67.2429 67.9515C66.1775 66.3249 66.9141 63.8373 66.9141 63.8373L67.46 63.7934C68.2485 63.7299 69.0417 63.8472 69.7715 64.1351C79.8718 68.1137 79.5775 65.544 79.5775 65.544C86.2217 67.5028 88.2105 68.6636 86.5302 69.7498Z" fill="#563C00"/>
<path d="M88.8499 57.3107C89.2279 57.3995 89.6198 57.4046 89.9998 57.3256C90.0947 57.311 90.1885 57.2892 90.2803 57.2605C90.3724 57.2327 90.4668 57.2156 90.5563 57.1795L90.8235 57.0703L90.957 57.0169L91.0843 56.9473C91.7671 56.5793 92.3794 56.0849 92.8912 55.4883C93.0257 55.3444 93.1519 55.1924 93.269 55.033C93.3903 54.8767 93.5198 54.7273 93.6347 54.5654L93.9717 54.0722C94.0818 53.9061 94.2075 53.7504 94.3039 53.574L94.6131 53.0577C94.7138 52.884 94.8268 52.7171 94.913 52.5344C95.096 52.1753 95.2826 51.8168 95.4598 51.4533L95.4643 51.4441C95.4694 51.4337 95.4772 51.4251 95.4869 51.4193C95.4965 51.4134 95.5076 51.4106 95.5188 51.4111C95.6484 51.4261 95.7715 51.4784 95.874 51.5621C95.9766 51.6458 96.0547 51.7576 96.0994 51.8849C96.1454 52.0021 96.178 52.1244 96.1968 52.2494C96.2214 52.3713 96.2339 52.4955 96.2342 52.6201C96.2382 53.1126 96.1918 53.6042 96.096 54.0865C95.9984 54.5655 95.8917 55.0442 95.7526 55.5116C95.6317 55.9863 95.4645 56.4431 95.3086 56.905C94.9843 57.8231 94.6083 58.719 94.2211 59.6082L94.0775 59.9427C94.0305 60.0517 93.9844 60.1536 93.9455 60.2628C93.8656 60.4784 93.8039 60.7007 93.7611 60.9274C93.7181 61.1541 93.6919 61.384 93.6829 61.6148C93.6764 61.8409 93.6891 62.0893 93.6933 62.3316C93.6943 62.3861 93.6745 62.4388 93.6381 62.4782C93.6018 62.5175 93.5519 62.5402 93.4994 62.5413C93.4827 62.5415 93.466 62.5397 93.4497 62.5358L92.7993 62.3755C92.58 62.337 92.3619 62.2856 92.141 62.2573C91.7001 62.1904 91.2551 62.1559 90.8095 62.1539C90.3628 62.1522 89.917 62.1939 89.4777 62.2782C89.0348 62.355 88.6045 62.4964 88.1997 62.6982L88.1978 62.6992C88.1934 62.7014 88.1884 62.7019 88.1837 62.7004C88.179 62.699 88.175 62.6957 88.1726 62.6913C88.1701 62.6869 88.1693 62.6817 88.1704 62.6768C88.1715 62.6718 88.1744 62.6675 88.1784 62.6646C88.5675 62.4094 88.9925 62.2188 89.4381 62.0995C89.8844 61.9795 90.3404 61.9031 90.8004 61.8713C91.0305 61.855 91.2614 61.8508 91.492 61.8586C91.7232 61.8578 91.9525 61.8826 92.1827 61.9013C92.4127 61.9222 92.6394 61.9662 92.8683 61.9978C93.0946 62.0422 93.3202 62.0917 93.5457 62.1418L93.3022 62.346C93.2936 62.1023 93.2759 61.8648 93.2779 61.6044C93.2812 61.3489 93.307 61.0942 93.355 60.8436C93.4031 60.5929 93.472 60.347 93.5611 60.1088C93.6043 59.9902 93.6562 59.871 93.7077 59.7595L93.8578 59.4313C94.0553 58.9926 94.2642 58.5584 94.4525 58.1156L94.7319 57.45C94.8246 57.2279 94.9256 57.0089 95.0082 56.7831C95.3758 55.8948 95.6847 54.9814 95.9329 54.0495C96.0535 53.5851 96.1144 53.1061 96.114 52.625C96.1152 52.5064 96.1046 52.388 96.0822 52.2716C96.0648 52.1564 96.0337 52.0438 95.9897 51.9365C95.9443 51.8348 95.8799 51.7435 95.8003 51.6678C95.7245 51.5982 95.6278 51.5581 95.5267 51.5541L95.5856 51.512C95.4181 51.8829 95.2598 52.259 95.098 52.6343C95.0231 52.825 94.9208 53.0018 94.83 53.1847L94.5498 53.7304C94.4567 53.9131 94.3533 54.0899 94.2402 54.2599L93.9102 54.7779C93.7932 54.9455 93.6603 55.1019 93.5359 55.2645C93.4133 55.429 93.2803 55.5848 93.1377 55.731L92.7091 56.1704C92.5562 56.3062 92.3935 56.431 92.2364 56.5613C91.9128 56.813 91.5615 57.0236 91.1897 57.1885L91.0519 57.2536L90.9072 57.302L90.6175 57.3949C90.521 57.4253 90.4191 57.4365 90.3205 57.4579C90.222 57.4811 90.1217 57.4948 90.0208 57.4989C89.6199 57.5441 89.2144 57.4924 88.8358 57.3481C88.8313 57.3462 88.8276 57.3426 88.8255 57.3381C88.8234 57.3335 88.8231 57.3283 88.8245 57.3235C88.826 57.3187 88.8291 57.3146 88.8333 57.3121C88.8376 57.3096 88.8425 57.3089 88.8473 57.31L88.8499 57.3107Z" fill="black"/>
<path d="M98.3807 58.4871C98.5648 58.4932 98.7486 58.4639 98.9244 58.4001L98.5341 63.2388L97.3132 62.2653H97.3115C97.4185 61.9583 97.5115 61.6449 97.5901 61.3266C97.6718 61.0097 97.7435 60.6891 97.8002 60.3627C97.8602 60.037 97.9025 59.7074 97.927 59.3756C97.9559 59.0528 97.9497 58.727 97.9087 58.4059C98.0621 58.4576 98.2209 58.4849 98.3807 58.4871Z" fill="#563C00"/>
<path d="M97.8852 56.8786L98.9244 58.4002C98.5554 58.2468 98.1592 58.2298 97.7827 58.3511V58.3488L97.5555 57.5622C97.4736 57.3047 97.3991 57.0425 97.3115 56.7874L97.8852 56.8786Z" fill="#563C00"/>
<path d="M97.469 61.3136L97.2595 62.3037C95.7598 63.1378 93.5691 62.4005 93.5691 62.4005L93.5515 61.9361C93.5277 61.2634 93.6654 60.5949 93.9528 59.9875C97.9252 51.592 95.6169 51.7264 95.6169 51.7264C97.6432 46.1729 98.7611 44.5365 99.6637 46.0109C100.564 47.4872 99.507 52.1454 98.2736 53.681C97.9118 54.1414 97.6517 54.6747 97.5108 55.245C97.37 55.8153 97.3518 56.4094 97.4572 56.9874C97.5042 57.2166 97.5669 57.4439 97.6198 57.6732L97.8018 58.3431C97.8321 58.6714 97.8282 59.002 97.7901 59.3294C97.7587 59.6614 97.7118 59.9934 97.653 60.3234C97.5962 60.6535 97.5356 60.9835 97.469 61.3136Z" fill="#563C00"/>
<path d="M14.7425 42.8326C14.4289 44.4234 14.0968 46.0104 13.7177 47.5886C13.623 47.9833 13.5267 48.3776 13.4224 48.771C13.3252 49.1728 13.2034 49.5685 13.0578 49.9559C12.6962 50.6905 12.3438 51.4127 12.0099 52.1533C11.3357 53.6272 10.7291 55.1294 10.1533 56.641C10.0114 57.0197 9.87425 57.3999 9.74191 57.7818C9.60311 58.1616 9.49584 58.5552 9.34466 58.9324L8.46565 61.2068L8.46393 61.2112C8.45617 61.2313 8.44314 61.2489 8.42618 61.2624C8.40921 61.2758 8.38892 61.2846 8.36737 61.2878C7.99111 61.3447 7.61195 61.3811 7.23162 61.397C6.84354 61.4302 6.45261 61.388 6.08113 61.2727C5.73519 61.1392 5.38053 61.0286 5.01956 60.9417C4.85541 60.8969 4.68086 60.9058 4.52234 60.9672C4.49082 60.9856 4.4634 61.0101 4.44169 61.0391C4.41998 61.0681 4.40442 61.1012 4.39595 61.1363C4.38024 61.2171 4.38051 61.3001 4.39676 61.3809C4.43394 61.5548 4.49623 61.7226 4.58175 61.8791C4.60309 61.9189 4.62476 61.9585 4.6478 61.9972L4.68291 62.0536L4.69723 62.075C4.69796 62.0761 4.6965 62.0751 4.69887 62.0781C4.7563 62.1006 4.66726 62.2294 4.67582 62.1913L4.66928 62.1936L4.65738 62.1968L4.6358 62.2007L4.35302 62.234C3.98025 62.2755 3.60866 62.3217 3.23912 62.3803C2.87014 62.4365 2.50499 62.5148 2.14569 62.6147C1.96818 62.6634 1.795 62.7262 1.62788 62.8026C1.47116 62.8777 1.29633 62.985 1.27029 63.1215C1.26778 63.1346 1.26149 63.1467 1.25217 63.1564C1.24286 63.1661 1.2309 63.1729 1.21774 63.1761C1.05737 63.2151 0.900299 63.2661 0.747935 63.3289C0.597221 63.3875 0.456197 63.4677 0.329479 63.5671C0.269544 63.6066 0.221558 63.6613 0.190574 63.7254C0.15959 63.7895 0.146753 63.8606 0.153417 63.9313C0.196108 64.0758 0.28502 64.2029 0.406968 64.2938C0.419805 64.3051 0.428561 64.3202 0.431929 64.3369C0.435297 64.3535 0.433096 64.3708 0.425652 64.3861L0.42401 64.3895C0.344484 64.5387 0.310991 64.7075 0.32764 64.8752C0.343688 64.9502 0.382626 65.0186 0.439257 65.0713C0.495887 65.124 0.567514 65.1584 0.644578 65.17C1.00688 65.2104 1.37351 65.191 1.7293 65.1126C2.47271 65.0055 3.2047 64.8309 3.97373 64.7628C4.16802 64.7455 4.36333 64.7422 4.55812 64.7528C4.75866 64.7644 4.94649 64.7972 5.13091 64.8217C5.50268 64.874 5.8742 64.9199 6.24677 64.9558C6.98974 65.0304 7.73706 65.0546 8.48341 65.028C9.22283 65.0069 9.95709 64.8995 10.6708 64.7082C10.845 64.6575 11.0193 64.5933 11.1859 64.5347C11.3386 64.4717 11.4786 64.382 11.5989 64.2701C11.7195 64.1573 11.8198 64.0252 11.8955 63.8795C11.9701 63.725 12.0249 63.562 12.0589 63.3943C12.4355 61.9489 12.9045 60.5284 13.4633 59.1412C14.0149 57.7523 14.6412 56.3933 15.3398 55.0699C16.0472 53.7512 16.8323 52.4742 17.691 51.2454C18.5393 50.022 19.3805 48.7929 20.1539 47.5231C20.537 46.8866 20.9139 46.2455 21.2505 45.5846C21.4206 45.2549 21.5767 44.9189 21.7188 44.5768C21.7854 44.4045 21.8516 44.2317 21.9048 44.055C21.9633 43.8821 21.9964 43.7018 22.0032 43.5197L22.0031 43.5142C22.003 43.5092 22.0049 43.5042 22.0085 43.5005C22.012 43.4968 22.0169 43.4946 22.022 43.4944C22.0272 43.4941 22.0323 43.4959 22.0361 43.4993C22.04 43.5027 22.0424 43.5074 22.0427 43.5125C22.0453 43.7015 22.0195 43.8898 21.9661 44.0714C21.9197 44.2527 21.8602 44.4297 21.8002 44.6067C21.6712 44.957 21.5281 45.3017 21.3711 45.6409C21.2167 45.981 21.0475 46.3137 20.8783 46.6467C20.7005 46.9748 20.5255 47.305 20.3381 47.6279C19.5958 48.9237 18.7967 50.1869 17.9609 51.425C17.1329 52.6572 16.377 53.935 15.6971 55.2519C15.0103 56.5651 14.3951 57.9132 13.8541 59.2907C13.581 59.9782 13.3314 60.6745 13.0962 61.3751C12.8585 62.0748 12.6401 62.7812 12.4484 63.4933C12.4052 63.6889 12.3379 63.8787 12.2482 64.0584C12.15 64.2428 12.0208 64.4094 11.866 64.5513C11.7102 64.6933 11.5295 64.8065 11.3328 64.8854C11.1444 64.9507 10.9638 65.0145 10.7763 65.0674C10.0315 65.2613 9.26549 65.3655 8.49511 65.3776C7.73284 65.392 6.97045 65.3547 6.21341 65.2658C5.83598 65.2225 5.45947 65.1713 5.0858 65.1099C4.89735 65.0797 4.71379 65.0435 4.5379 65.0292C4.35624 65.0148 4.17375 65.0134 3.99188 65.025C3.25519 65.0712 2.51028 65.2249 1.7591 65.3172C1.57004 65.3403 1.38557 65.3661 1.19151 65.3797C0.992576 65.4003 0.791547 65.3888 0.596423 65.3454C0.546499 65.3286 0.496795 65.3082 0.447531 65.2889C0.399332 65.2616 0.353741 65.2302 0.311316 65.1948C0.229786 65.1161 0.17604 65.0138 0.15796 64.9029C0.138744 64.6989 0.182633 64.494 0.283876 64.315L0.300893 64.4106C0.155161 64.2942 0.0517142 64.1345 0.00605172 63.9554C-0.0103528 63.8571 0.00681375 63.7562 0.0548724 63.6685C0.100721 63.5875 0.162151 63.516 0.235743 63.458C0.374482 63.3503 0.528826 63.2637 0.693651 63.2009C0.853985 63.1363 1.0192 63.0841 1.18778 63.0449L1.1353 63.0995C1.16093 62.9927 1.22542 62.8988 1.31661 62.8356C1.39524 62.7762 1.48046 62.7258 1.57065 62.6854C1.74498 62.6073 1.9255 62.5434 2.11041 62.4942C2.4759 62.3921 2.8477 62.3258 3.21875 62.2604C3.59027 62.1973 3.96366 62.1467 4.3369 62.1011L4.6132 62.0656L4.62627 62.0632C4.6251 62.0634 4.62395 62.0638 4.62284 62.0642L4.62051 62.0653C4.63056 62.0269 4.54204 62.1538 4.6005 62.1754L4.59153 62.1648C4.58234 62.1533 4.57377 62.1415 4.56585 62.1292L4.52676 62.0679C4.50185 62.0271 4.47853 61.9857 4.4556 61.944C4.36134 61.7757 4.29228 61.5948 4.25056 61.407C4.22937 61.3062 4.22865 61.2024 4.24842 61.1014C4.26134 61.0466 4.28526 60.9949 4.31878 60.9493C4.35231 60.9038 4.39475 60.8652 4.44363 60.836C4.53783 60.7846 4.64417 60.7586 4.75189 60.7606C4.8511 60.7593 4.95021 60.7674 5.04784 60.7847C5.41932 60.8627 5.78499 60.9654 6.14235 61.0921C6.4925 61.1894 6.85875 61.2179 7.22013 61.1759C7.59004 61.1501 7.95825 61.1046 8.32315 61.0396L8.22492 61.1205L9.03895 58.8303C9.29698 58.0643 9.53898 57.2863 9.825 56.5236C10.3772 54.9917 11.0284 53.4977 11.7146 52.0216C12.0575 51.2858 12.4214 50.5487 12.7911 49.833C12.9391 49.4637 13.0654 49.0864 13.1693 48.7029C13.283 48.3154 13.3894 47.9248 13.4943 47.5338C13.9081 45.9681 14.307 44.3964 14.7033 42.8242C14.7045 42.8192 14.7077 42.8148 14.7122 42.8121C14.7166 42.8094 14.722 42.8084 14.7271 42.8095C14.7323 42.8106 14.7367 42.8137 14.7396 42.818C14.7425 42.8223 14.7435 42.8276 14.7425 42.8326Z" fill="black"/>
<path d="M0.0742555 64.156C0.677272 64.0295 1.2888 63.931 1.90583 63.861C2.52043 63.7865 3.14266 63.7612 3.76342 63.7856C3.14482 63.788 2.52804 63.8398 1.92211 63.9403C1.31722 64.0358 0.719616 64.1592 0.132236 64.3099L0.129901 64.3105C0.104726 64.3169 0.0774123 64.315 0.0539496 64.3053C0.0304869 64.2955 0.0127915 64.2786 0.00474367 64.2583C-0.00330412 64.238 -0.00104699 64.216 0.0110202 64.197C0.0230874 64.1781 0.0439792 64.1638 0.0691139 64.1572L0.0742555 64.156Z" fill="black"/>
<path d="M1.16667 62.9449L3.22572 62.7013L1.19178 63.2366C1.17896 63.24 1.16581 63.2397 1.15308 63.2355C1.14035 63.2314 1.12829 63.2236 1.1176 63.2125C1.10691 63.2014 1.09779 63.1873 1.09078 63.171C1.08376 63.1547 1.07898 63.1365 1.07671 63.1174C1.07444 63.0983 1.07472 63.0788 1.07755 63.0599C1.08037 63.0409 1.08568 63.023 1.09316 63.0072C1.10065 62.9913 1.11017 62.9778 1.12117 62.9675C1.13217 62.9571 1.14444 62.95 1.15728 62.9467C1.16037 62.9459 1.16361 62.9454 1.16667 62.9449Z" fill="black"/>
<path d="M8.588 61.2493L8.06445 62.1636L8.3836 61.1648C8.38792 61.1512 8.39497 61.1385 8.40433 61.1276C8.4137 61.1166 8.42521 61.1076 8.43819 61.1009C8.45118 61.0943 8.46539 61.0902 8.48001 61.0888C8.49463 61.0875 8.50938 61.089 8.52341 61.0932C8.53744 61.0974 8.55048 61.1043 8.56177 61.1134C8.57307 61.1225 8.5824 61.1336 8.58923 61.1462C8.59607 61.1588 8.60028 61.1726 8.60162 61.1868C8.60296 61.201 8.6014 61.2152 8.59704 61.2288C8.59473 61.2359 8.5917 61.2428 8.588 61.2493Z" fill="black"/>
<path d="M27.4702 44.4431C27.3715 46.8325 27.0474 49.2069 26.5023 51.5335C26.2187 52.6922 25.8857 53.8371 25.6018 54.9878C25.3121 56.1341 25.1177 57.303 25.0207 58.4823C24.9758 59.0727 24.9451 59.6613 24.9227 60.2581C24.8929 60.8551 24.891 61.446 24.8018 62.0624C24.7783 62.2253 24.7333 62.3841 24.668 62.5347C24.594 62.6951 24.4811 62.8338 24.34 62.9377C24.0841 63.1052 23.8135 63.2482 23.5315 63.3647C23.2639 63.4871 23.0127 63.6198 22.7404 63.7526C22.4712 63.8812 22.1986 63.998 21.9246 64.1096C20.8274 64.5514 19.7095 64.9184 18.5942 65.2884C18.0379 65.4744 17.4749 65.6513 16.9363 65.8702C16.871 65.8969 16.807 65.9269 16.7447 65.9601C16.7175 65.9735 16.6926 65.9913 16.6711 66.0129C16.6459 66.0377 16.6215 66.0636 16.5978 66.0901C16.5023 66.1949 16.4206 66.3117 16.3545 66.4377C16.2869 66.5535 16.2577 66.6883 16.271 66.8222C16.2853 66.8847 16.3141 66.9427 16.3551 66.9914C16.3962 67.0401 16.4481 67.0781 16.5067 67.102C16.5145 67.1058 16.5215 67.1112 16.5273 67.1178C16.533 67.1244 16.5375 67.1321 16.5403 67.1404C16.5432 67.1487 16.5444 67.1576 16.5439 67.1664C16.5434 67.1752 16.5412 67.1838 16.5374 67.1917L16.5357 67.195L16.5348 67.1967C16.469 67.3158 16.4189 67.4432 16.3856 67.5755C16.349 67.701 16.3495 67.8347 16.387 67.9599C16.4102 68.0179 16.4463 68.0695 16.4924 68.1109C16.5386 68.1523 16.5936 68.1822 16.653 68.1983C16.7812 68.238 16.9154 68.2541 17.0492 68.246C17.0596 68.2457 17.0699 68.2481 17.0791 68.2531C17.0883 68.2581 17.0961 68.2654 17.1017 68.2743C17.1073 68.2833 17.1105 68.2935 17.1111 68.3041C17.1116 68.3147 17.1095 68.3252 17.1048 68.3347L17.1039 68.3367C17.0183 68.5025 16.9607 68.6818 16.9335 68.867C16.9127 68.95 16.9165 69.0374 16.9445 69.1182C16.9725 69.199 17.0235 69.2695 17.091 69.3209C17.2516 69.3994 17.4323 69.4252 17.608 69.3949C17.7943 69.3722 17.9783 69.3328 18.1577 69.277C18.5193 69.1751 18.8696 69.0044 19.2253 68.8638L20.2869 68.4178C20.3033 68.4109 20.3215 68.4096 20.3388 68.414C20.356 68.4184 20.3714 68.4284 20.3827 68.4424C20.3939 68.4564 20.4005 68.4737 20.4013 68.4918C20.4021 68.5098 20.3971 68.5277 20.3872 68.5427L20.3853 68.5455C20.2713 68.7142 20.1695 68.891 20.0806 69.0746C19.9895 69.2503 19.9277 69.4401 19.8977 69.6363C19.8854 69.7197 19.8981 69.805 19.9343 69.8809C19.9554 69.9131 19.9829 69.9405 20.015 69.9613C20.0471 69.9822 20.0831 69.996 20.1207 70.0021C20.3073 70.0324 20.4982 70.0164 20.6774 69.9557C21.0613 69.8278 21.4318 69.6615 21.7832 69.4591C22.1419 69.2615 22.4937 69.0479 22.8424 68.8282C23.5417 68.3895 24.2205 67.922 24.9434 67.4958C25.1291 67.3834 25.3253 67.2899 25.5292 67.2167C25.7456 67.1352 25.9771 67.1038 26.207 67.1246C26.6407 67.2052 27.0497 67.3883 27.401 67.6591C28.083 68.1189 28.772 68.5818 29.5227 68.8089C29.8661 68.9389 30.2457 68.9288 30.5819 68.7807C30.6562 68.7397 30.7245 68.6883 30.7847 68.628C30.8456 68.5679 30.8986 68.5 30.9423 68.426C30.9794 68.3721 30.9967 68.3066 30.9911 68.241C30.9855 68.1755 30.9573 68.114 30.9115 68.0675C30.7878 67.9306 30.6434 67.8146 30.4837 67.7239C30.3152 67.6188 30.1352 67.5198 29.9538 67.4145C29.7647 67.3087 29.5831 67.1895 29.4106 67.0576C29.2211 66.9131 29.0666 66.7265 28.959 66.512C28.7865 66.1041 28.6845 65.669 28.6573 65.2259C28.6074 64.8202 28.5569 64.398 28.3443 64.1687L28.343 64.1673C28.3181 64.1404 28.3007 64.1073 28.2925 64.0713C28.2843 64.0353 28.2856 63.9978 28.2962 63.9625L29.7544 59.1655L31.2496 54.3801C31.7465 52.7845 32.2616 51.1946 32.7745 49.6041C33.2874 48.0135 33.8195 46.4292 34.371 44.8512C34.3727 44.8461 34.3764 44.842 34.3811 44.8397C34.3859 44.8375 34.3913 44.8372 34.3963 44.839C34.4011 44.8408 34.4051 44.8445 34.4073 44.8492C34.4096 44.854 34.41 44.8594 34.4084 44.8644C33.9066 46.4577 33.4534 48.0671 32.9734 49.6676L31.555 54.4763L30.1332 59.284L28.691 64.0852L28.643 63.8791C28.8035 64.0643 28.9142 64.2883 28.9645 64.5296C29.0125 64.7419 29.0481 64.9568 29.0711 65.1733C29.0952 65.567 29.184 65.9538 29.3336 66.3178C29.4118 66.4788 29.5263 66.6189 29.6677 66.7265C29.8237 66.8472 29.9878 66.9566 30.1589 67.054C30.3341 67.158 30.5156 67.2597 30.6972 67.375C30.8962 67.4915 31.0747 67.6409 31.2253 67.817C31.316 67.9288 31.3719 68.0654 31.3859 68.2095C31.3941 68.3548 31.3587 68.4992 31.2845 68.6236C31.2223 68.7293 31.1464 68.826 31.0589 68.9112C30.9716 68.9972 30.8727 69.0703 30.7653 69.1283C30.5529 69.24 30.3159 69.2946 30.0769 69.2869C29.8532 69.2819 29.6314 69.2449 29.4178 69.1773C28.5843 68.9148 27.885 68.4259 27.2034 67.9594C26.9008 67.7161 26.5471 67.5469 26.1697 67.4649C25.9879 67.4463 25.8043 67.4694 25.6325 67.5327C25.4469 67.5964 25.2679 67.6787 25.0983 67.7784C24.3901 68.1819 23.697 68.6435 22.9834 69.0654C22.6271 69.2784 22.2667 69.4861 21.8967 69.6787C21.5263 69.8805 21.1369 70.0441 20.7344 70.1671C20.5196 70.2341 20.2919 70.2462 20.0714 70.2024C20.0078 70.1888 19.9476 70.1621 19.8945 70.1238C19.8415 70.0856 19.7967 70.0367 19.7631 69.9802C19.7079 69.8671 19.6886 69.7393 19.708 69.6146C19.7442 69.3969 19.8162 69.1869 19.9209 68.9935C20.0176 68.8034 20.1278 68.6206 20.2506 68.4467L20.349 68.5743L19.2783 69.0024C18.9192 69.141 18.5744 69.3071 18.1955 69.4116C18.0079 69.4683 17.8156 69.5079 17.621 69.5299C17.4159 69.5627 17.2059 69.5283 17.0214 69.4316C16.9264 69.3711 16.8569 69.2768 16.8264 69.1672C16.7995 69.0642 16.7938 68.9567 16.8094 68.8513C16.8397 68.6507 16.9034 68.4569 16.9977 68.278L17.0523 68.3687C16.9045 68.3754 16.7566 68.357 16.6147 68.3143C16.538 68.2928 16.4671 68.2538 16.4074 68.2002C16.3478 68.1467 16.301 68.0799 16.2707 68.0051C16.2224 67.8562 16.2189 67.6961 16.2604 67.5451C16.2952 67.3997 16.3489 67.2596 16.42 67.1286L16.4481 67.2232C16.3704 67.1904 16.3015 67.1392 16.2472 67.0739C16.193 67.0086 16.1548 66.931 16.136 66.8477C16.1152 66.6833 16.1475 66.5165 16.2282 66.3724C16.2987 66.2343 16.3864 66.106 16.4893 65.9907C16.5146 65.962 16.5407 65.9338 16.5679 65.9064C16.5986 65.8756 16.6336 65.8495 16.6718 65.829C16.7388 65.7921 16.8077 65.7589 16.8782 65.7293C17.428 65.503 17.9831 65.3153 18.5355 65.1129C19.6409 64.7152 20.7476 64.3194 21.8217 63.8566C22.0895 63.7399 22.3548 63.6184 22.6134 63.487C22.8669 63.3559 23.1331 63.2073 23.3976 63.0786C23.6558 62.9627 23.9048 62.8266 24.1423 62.6714C24.2399 62.5998 24.3175 62.5036 24.3675 62.3922C24.4187 62.269 24.4535 62.1394 24.4712 62.0068C24.5493 61.4426 24.5501 60.8375 24.5745 60.2449C24.5914 59.6506 24.6171 59.0483 24.6722 58.4512C24.7819 57.2548 24.9902 56.0698 25.295 54.9088C25.5918 53.7498 25.9319 52.6105 26.2472 51.4646C26.5506 50.3174 26.7942 49.1548 26.977 47.9815C27.1714 46.8084 27.3185 45.6262 27.4307 44.4406C27.4311 44.4353 27.4335 44.4303 27.4374 44.4268C27.4414 44.4233 27.4466 44.4216 27.4518 44.4219C27.457 44.4224 27.4617 44.4249 27.4651 44.4288C27.4685 44.4327 27.4704 44.4378 27.4702 44.4431Z" fill="black"/>
<path d="M16.7083 66.8587L19.8908 65.3895L16.7709 66.9944C16.7623 66.9988 16.753 67.0015 16.7434 67.0022C16.7338 67.0029 16.7242 67.0017 16.7151 66.9986C16.706 66.9955 16.6975 66.9906 16.6903 66.9841C16.683 66.9776 16.6771 66.9697 16.6728 66.9609C16.6685 66.9521 16.6659 66.9424 16.6652 66.9326C16.6645 66.9227 16.6658 66.9128 16.6688 66.9035C16.6719 66.8941 16.6767 66.8854 16.683 66.878C16.6893 66.8705 16.697 66.8644 16.7056 66.86L16.7083 66.8587Z" fill="black"/>
<path d="M17.2398 67.9501L20.9675 65.9271L17.3095 68.0681C17.2936 68.0773 17.2747 68.08 17.2568 68.0756C17.2389 68.0712 17.2235 68.06 17.214 68.0445C17.2045 68.029 17.2017 68.0105 17.2062 67.993C17.2106 67.9755 17.222 67.9605 17.2378 67.9512L17.2398 67.9501Z" fill="black"/>
<path d="M20.455 68.4798L22.5812 66.4647L20.552 68.5934C20.5384 68.6077 20.5201 68.6155 20.5011 68.6152C20.4821 68.6149 20.4641 68.6065 20.4509 68.5918C20.4376 68.5771 20.4304 68.5573 20.4307 68.5368C20.431 68.5163 20.4388 68.4968 20.4524 68.4825L20.455 68.4798Z" fill="black"/>
<path d="M71.5049 28.2929C71.7015 27.6715 72.0511 27.185 72.482 26.933C72.917 26.6965 73.3849 26.6243 73.8435 26.7229C74.7486 26.8965 75.6249 27.2623 76.5079 27.518C76.7265 27.5862 76.9472 27.6381 77.1693 27.6736C77.3848 27.7175 77.6038 27.7064 77.8167 27.6407C77.8662 27.6193 77.9149 27.5939 77.9625 27.5647C78.0086 27.5333 78.0468 27.4851 78.0902 27.4475C78.1393 27.3981 78.1892 27.3394 78.2417 27.2941C78.2961 27.2523 78.3523 27.2165 78.4101 27.1867C78.6386 27.0902 78.8787 27.0702 79.113 27.1282C79.5626 27.2437 80.0048 27.4155 80.4349 27.6416L81.7199 28.2929C81.2802 28.1318 80.8465 27.937 80.4103 27.7603C79.9818 27.5605 79.5429 27.4138 79.098 27.3217C78.8834 27.2816 78.6655 27.3062 78.4574 27.3941C78.4087 27.4203 78.3612 27.4514 78.3154 27.4872C78.271 27.5271 78.2324 27.5748 78.188 27.6192C78.1374 27.6743 78.0844 27.7245 78.0293 27.7695C77.973 27.806 77.9153 27.8374 77.8564 27.8635C77.6261 27.9403 77.3887 27.9576 77.1545 27.9145C76.9263 27.8824 76.6994 27.8329 76.4747 27.7661C75.5848 27.4863 74.7132 27.1267 73.8258 26.915C73.3871 26.7979 72.9357 26.8437 72.5118 27.0482C72.0837 27.2641 71.7248 27.7076 71.5049 28.2929Z" fill="black"/>
<path d="M8.60254 13.2392C8.80945 12.8249 9.17744 12.5006 9.6311 12.3326C10.089 12.1749 10.5815 12.1268 11.0642 12.1925C12.017 12.3083 12.9394 12.5521 13.8689 12.7226C14.099 12.768 14.3313 12.8026 14.5651 12.8263C14.7919 12.8556 15.0224 12.8482 15.2466 12.8044C15.2987 12.7901 15.3499 12.7732 15.4001 12.7537C15.4486 12.7328 15.4887 12.7006 15.5344 12.6756C15.5862 12.6426 15.6387 12.6035 15.694 12.5733C15.7511 12.5455 15.8104 12.5215 15.8712 12.5017C16.1117 12.4373 16.3644 12.424 16.6111 12.4627C17.0844 12.5398 17.5498 12.6543 18.0025 12.805L19.3552 13.2392C18.8923 13.1318 18.4358 13.0019 17.9766 12.8841C17.5256 12.7509 17.0636 12.6531 16.5953 12.5917C16.3694 12.5649 16.14 12.5814 15.921 12.64C15.8697 12.6574 15.8197 12.6782 15.7715 12.702C15.7248 12.7287 15.6841 12.7604 15.6374 12.79C15.5841 12.8268 15.5283 12.8603 15.4704 12.8903C15.4111 12.9146 15.3503 12.9355 15.2883 12.9529C15.046 13.0041 14.796 13.0156 14.5495 12.9869C14.3093 12.9655 14.0705 12.9325 13.8339 12.888C12.8972 12.7014 11.9797 12.4617 11.0456 12.3205C10.5838 12.2425 10.1086 12.273 9.6625 12.4094C9.2118 12.5533 8.83409 12.849 8.60254 13.2392Z" fill="black"/>
<path d="M0 42.2713C0.206908 41.857 0.574902 41.5327 1.02856 41.3647C1.48643 41.207 1.97899 41.1589 2.46169 41.2246C3.41447 41.3404 4.33684 41.5842 5.26635 41.7547C5.49642 41.8002 5.72877 41.8348 5.96253 41.8584C6.18937 41.8877 6.41989 41.8803 6.64406 41.8365C6.69615 41.8222 6.74738 41.8053 6.79751 41.7858C6.84606 41.7649 6.88618 41.7327 6.93189 41.7077C6.98364 41.6748 7.03615 41.6356 7.09142 41.6054C7.14858 41.5776 7.20783 41.5537 7.26869 41.5339C7.50915 41.4695 7.76188 41.4561 8.00852 41.4948C8.48182 41.5718 8.9473 41.6864 9.39997 41.8371L10.7526 42.2713C10.2898 42.1639 9.83325 42.034 9.37411 41.9162C8.9231 41.783 8.46106 41.6852 7.99277 41.6238C7.76683 41.5971 7.53746 41.6135 7.31848 41.6721C7.26717 41.6896 7.21721 41.7103 7.16893 41.7341C7.12224 41.7608 7.08159 41.7925 7.03489 41.8221C6.98159 41.8589 6.9258 41.8924 6.86785 41.9224C6.80859 41.9467 6.74779 41.9676 6.68579 41.985C6.44345 42.0362 6.19349 42.0477 5.94697 42.019C5.70678 41.9976 5.46794 41.9646 5.23139 41.9201C4.29466 41.7335 3.37719 41.4939 2.44306 41.3527C1.98128 41.2746 1.50609 41.3052 1.05996 41.4415C0.609254 41.5854 0.231533 41.8811 0 42.2713Z" fill="black"/>
<path d="M43.5479 20.7659C43.7548 20.3517 44.1228 20.0273 44.5764 19.8593C45.0343 19.7016 45.5268 19.6535 46.0095 19.7193C46.9623 19.835 47.8847 20.0788 48.8142 20.2493C49.0443 20.2948 49.2766 20.3294 49.5104 20.353C49.7372 20.3823 49.9677 20.3749 50.1919 20.3311C50.244 20.3168 50.2952 20.2999 50.3454 20.2804C50.3939 20.2595 50.434 20.2274 50.4797 20.2023C50.5315 20.1694 50.584 20.1303 50.6393 20.1C50.6964 20.0722 50.7557 20.0483 50.8165 20.0285C51.057 19.9641 51.3097 19.9507 51.5564 19.9894C52.0297 20.0665 52.4952 20.181 52.9478 20.3317L54.3005 20.7659C53.8376 20.6585 53.3811 20.5286 52.922 20.4109C52.471 20.2776 52.0089 20.1798 51.5406 20.1184C51.3147 20.0917 51.0853 20.1081 50.8663 20.1667C50.815 20.1842 50.7651 20.2049 50.7168 20.2287C50.6701 20.2554 50.6294 20.2872 50.5827 20.3168C50.5294 20.3535 50.4736 20.387 50.4157 20.417C50.3564 20.4413 50.2956 20.4622 50.2336 20.4796C49.9913 20.5308 49.7413 20.5423 49.4948 20.5136C49.2546 20.4922 49.0158 20.4592 48.7792 20.4147C47.8425 20.2281 46.925 19.9885 45.9909 19.8473C45.5291 19.7692 45.0539 19.7998 44.6078 19.9361C44.1571 20.08 43.7794 20.3757 43.5479 20.7659Z" fill="black"/>
<path d="M82.9274 13.2393C80.875 13.2393 79.1623 11.6731 79.14 11.6523L79.0332 11.553L79.1724 11.4999C82.7035 10.149 84.854 12.5575 84.8754 12.5819L84.9472 12.6644L84.8508 12.7203C84.2741 13.0605 83.6075 13.2403 82.9274 13.2393ZM79.3929 11.6183C79.937 12.0702 82.3313 13.8661 84.6445 12.6191C84.2446 12.2248 82.3349 10.57 79.3929 11.6183Z" fill="black"/>
<path d="M81.7197 12.1639C82.5211 12.2744 83.3208 12.3943 84.1183 12.528C84.5169 12.5956 84.9153 12.665 85.3118 12.746C85.5102 12.7862 85.7082 12.8278 85.9055 12.8773C86.11 12.9228 86.3089 12.9853 86.4995 13.0641C86.512 13.0695 86.5232 13.077 86.5323 13.0861C86.5415 13.0953 86.5485 13.1059 86.5529 13.1175C86.5573 13.129 86.5591 13.1411 86.5582 13.1532C86.5572 13.1653 86.5535 13.1771 86.5473 13.188C86.541 13.1989 86.5324 13.2086 86.5219 13.2165C86.5113 13.2245 86.4991 13.2306 86.4859 13.2344C86.4726 13.2383 86.4587 13.2398 86.4447 13.239C86.4308 13.2381 86.4172 13.2349 86.4047 13.2295L86.4032 13.2288L86.3909 13.2232C86.0314 13.0782 85.6568 12.9634 85.2722 12.8804C84.8832 12.7853 84.4897 12.7009 84.0958 12.6184C83.3074 12.4549 82.5154 12.3034 81.7197 12.1639Z" fill="black"/>
<path d="M9.37788 29.9059C8.61299 29.9013 7.85382 29.7774 7.1293 29.5388L6.98828 29.4868L7.09308 29.3815C9.75716 26.7045 12.7705 28.136 12.8005 28.1511L12.9022 28.2008L12.8375 28.292C11.9271 29.5761 10.5508 29.9059 9.37788 29.9059ZM7.34684 29.4066C8.04187 29.6193 11.0159 30.374 12.6045 28.2775C12.0671 28.0621 9.59891 27.2504 7.34684 29.4066Z" fill="black"/>
<path d="M10.2158 28.8306C10.9055 28.6043 11.5982 28.3912 12.2938 28.1913C12.642 28.0933 12.9908 27.9974 13.3428 27.9155C13.5189 27.8742 13.6951 27.8346 13.8741 27.8044C14.0571 27.7665 14.2427 27.7505 14.4282 27.7567C14.4529 27.7582 14.476 27.7718 14.4926 27.7945C14.5092 27.8171 14.5179 27.8469 14.5168 27.8775C14.5156 27.908 14.5048 27.9367 14.4866 27.9574C14.4684 27.9781 14.4443 27.989 14.4196 27.9877L14.4181 27.9876L14.4059 27.9866C14.0575 27.9789 13.7093 28.0124 13.366 28.0868C13.0142 28.1491 12.6633 28.2258 12.3127 28.3047C11.6118 28.4647 10.9128 28.6418 10.2158 28.8306Z" fill="black"/>
<path d="M88.1699 13.8083C89.0307 13.8877 89.8846 14.0359 90.7245 14.2517C91.5717 14.4589 92.3898 14.7834 93.158 15.2172C93.5477 15.4381 93.8989 15.7287 94.1965 16.0762C94.5013 16.4336 94.6926 16.8845 94.7433 17.3646C94.7523 17.4843 94.7472 17.6052 94.7468 17.7252C94.73 17.8433 94.7173 17.9633 94.6962 18.0798C94.6487 18.3116 94.5799 18.5379 94.4907 18.7552C94.3972 18.9784 94.2632 19.1797 94.0965 19.3474C93.9228 19.5163 93.7076 19.6289 93.4761 19.6721C93.0239 19.7341 92.565 19.6406 92.166 19.4052C91.7661 19.1839 91.4328 18.8465 91.2048 18.4319C90.9788 18.0195 90.8563 17.5519 90.8491 17.0743C90.8419 16.5966 90.9503 16.1251 91.1638 15.7051C91.3873 15.2959 91.6986 14.949 92.0721 14.6929C92.4361 14.4396 92.8199 14.2202 93.2191 14.0371C94.0176 13.6823 94.8477 13.415 95.6968 13.2391C94.8597 13.4542 94.0435 13.7531 93.2591 14.1319C92.4981 14.5251 91.6936 14.98 91.2983 15.7828C91.1059 16.1789 91.0106 16.6206 91.0215 17.0666C91.0323 17.5126 91.1489 17.9484 91.3604 18.3333C91.5731 18.7142 91.8824 19.0232 92.2526 19.2247C92.6151 19.4356 93.0307 19.5192 93.4403 19.4636C93.6365 19.4291 93.8193 19.3352 93.9669 19.1931C94.1153 19.045 94.2349 18.8671 94.3188 18.6697C94.498 18.2681 94.5819 17.8257 94.5634 17.3813C94.5188 16.9406 94.3452 16.526 94.0672 16.1966C93.7829 15.8627 93.4503 15.5795 93.082 15.358C92.3322 14.914 91.5316 14.5758 90.7002 14.3518C89.8693 14.1096 89.0239 13.928 88.1699 13.8083Z" fill="black"/>
<path d="M13.3759 60.3497C13.6224 60.3862 13.8653 60.4411 14.1022 60.5139C14.3508 60.5827 14.5867 60.6855 14.8021 60.819C14.8648 60.8599 14.9207 60.9087 14.9684 60.9641C14.9995 61.0008 15.023 61.0426 15.0376 61.0872C15.0579 61.1443 15.0578 61.2059 15.0375 61.2629C14.9998 61.355 14.9255 61.4303 14.8296 61.4733C14.7637 61.5061 14.6939 61.5319 14.6216 61.5502C14.369 61.6099 14.1082 61.6346 13.8476 61.6235C13.3508 61.5917 12.8561 61.5355 12.3657 61.4552C11.8776 61.3907 11.3875 61.3455 10.8955 61.2935C10.4018 61.2478 9.91198 61.1711 9.42954 61.0639C8.9406 60.9644 8.46135 60.828 7.99663 60.656C7.75592 60.5642 7.52649 60.4491 7.3122 60.3124C7.25378 60.2729 7.19892 60.229 7.14816 60.1813C7.08155 60.1224 7.03135 60.0495 7.00184 59.9688C6.98308 59.9099 6.9838 59.8472 7.00392 59.7887C7.02295 59.7349 7.05721 59.6868 7.10314 59.6493C7.16814 59.599 7.2437 59.5616 7.32508 59.5394C7.45443 59.5047 7.58798 59.485 7.72262 59.4807C7.84934 59.4739 7.97639 59.4739 8.10311 59.4807C8.35214 59.4932 8.59999 59.5212 8.84495 59.5644L8.84292 59.6022C8.59646 59.623 8.35183 59.643 8.11186 59.674C7.88162 59.6957 7.65528 59.7442 7.43825 59.8183C7.4026 59.8319 7.37031 59.8519 7.34333 59.8773C7.33547 59.898 7.35321 59.8644 7.35016 59.8662C7.36813 59.8898 7.38963 59.9109 7.41401 59.9289C7.45265 59.9589 7.49375 59.986 7.53692 60.0102C7.73681 60.1175 7.94631 60.2087 8.16311 60.283C8.60589 60.4441 9.06423 60.5914 9.5292 60.7202C9.99582 60.8441 10.4643 60.9703 10.937 61.09C11.4092 61.211 11.8922 61.2924 12.3803 61.3333C12.8665 61.3604 13.3542 61.3522 13.839 61.3088C14.0697 61.297 14.2992 61.2697 14.5256 61.2272C14.5724 61.2175 14.6179 61.2031 14.6614 61.1842C14.6997 61.1688 14.7144 61.1478 14.7074 61.1607C14.7038 61.1783 14.7159 61.1728 14.6963 61.1421C14.6703 61.1067 14.6389 61.0748 14.6032 61.0476C14.4208 60.9132 14.224 60.7963 14.0159 60.6988L13.363 60.3856L13.3759 60.3497Z" fill="black"/>
<path d="M13.8364 58.7158C14.0851 58.7515 14.3304 58.805 14.57 58.8759C14.8188 58.9438 15.057 59.041 15.2787 59.1652C15.3394 59.2018 15.3965 59.2433 15.4493 59.2892C15.5218 59.3513 15.5711 59.4329 15.5903 59.5224C15.5987 59.5846 15.5858 59.6478 15.5534 59.7029C15.5262 59.7478 15.4891 59.7868 15.4445 59.8175C15.379 59.8623 15.3059 59.897 15.2281 59.9199C14.9736 59.9905 14.708 60.0213 14.4424 60.011C13.9407 59.9824 13.4411 59.9281 12.9459 59.8483C12.4532 59.7848 11.9588 59.7392 11.4625 59.6872C10.9644 59.6415 10.4702 59.5644 9.98347 59.4565C9.49018 59.3565 9.00667 59.2191 8.53783 59.0458C8.29483 58.9533 8.06334 58.837 7.84734 58.6988C7.78831 58.6585 7.733 58.6137 7.68198 58.5649C7.61367 58.5033 7.56406 58.4263 7.5381 58.3415C7.52129 58.2809 7.52625 58.2168 7.55223 58.1589C7.5627 58.131 7.57889 58.1052 7.59992 58.0829C7.61599 58.0623 7.6354 58.0439 7.65746 58.0287C7.72353 57.981 7.79916 57.9459 7.88 57.9253C8.13635 57.8686 8.40086 57.8501 8.66354 57.8704C8.91467 57.8836 9.16457 57.9122 9.41157 57.956L9.40945 57.9938C9.16078 58.0139 8.91391 58.0332 8.67157 58.0636C8.43864 58.0848 8.20944 58.1324 7.98914 58.2054C7.95128 58.2188 7.91674 58.2391 7.88763 58.2651C7.8738 58.2881 7.89463 58.2601 7.89183 58.2566C7.90889 58.2782 7.92863 58.2979 7.95065 58.3153C7.98911 58.3456 8.03005 58.373 8.0731 58.3974C8.2744 58.506 8.48557 58.5983 8.70421 58.6731C9.15093 58.8355 9.61358 58.9835 10.0828 59.113C10.5537 59.2376 11.0265 59.3641 11.5037 59.4838C11.9802 59.6051 12.4677 59.6863 12.9601 59.7265C13.4504 59.7531 13.9423 59.7431 14.4308 59.6966C14.6609 59.6841 14.8893 59.6525 15.1133 59.6024C15.1545 59.5925 15.1937 59.5769 15.2298 59.5561C15.2551 59.5358 15.2416 59.5496 15.2448 59.5614C15.237 59.5387 15.2241 59.5179 15.2069 59.5002C15.1722 59.4651 15.1344 59.4327 15.0938 59.4034C14.6899 59.1555 14.2652 58.9376 13.8237 58.7518L13.8364 58.7158Z" fill="black"/>
<path d="M29.5537 61.1163C29.7962 61.1619 30.0351 61.2306 30.2679 61.3217C30.5132 61.4078 30.7453 61.5383 30.9554 61.7085C31.0178 61.7622 31.0725 61.8272 31.1172 61.9008L31.1527 61.9735C31.1629 62.0044 31.1713 62.036 31.1778 62.0682C31.189 62.1433 31.1806 62.2205 31.1536 62.29C31.1065 62.3916 31.032 62.4727 30.9415 62.5209C30.8765 62.5583 30.8085 62.5881 30.7384 62.61C30.4898 62.6819 30.2336 62.7116 29.9776 62.698C29.4889 62.6579 29.0024 62.5885 28.5199 62.49C28.0396 62.4113 27.5576 62.3563 27.0734 62.2944C26.5876 62.2403 26.1055 62.1482 25.6305 62.0185C25.1497 61.898 24.6778 61.7342 24.219 61.5286C23.984 61.4193 23.7577 61.2862 23.5429 61.1309C23.4221 61.0447 23.3137 60.9374 23.2214 60.8127C23.1526 60.7208 23.1158 60.6024 23.1183 60.4808C23.124 60.4157 23.1433 60.3531 23.1744 60.2985C23.2055 60.2438 23.2475 60.1987 23.2968 60.1668C23.4222 60.0889 23.5605 60.0426 23.7024 60.0312C23.8278 60.0158 23.9538 60.0102 24.0798 60.0144C24.3254 60.0234 24.5702 60.053 24.8121 60.103L24.8107 60.1505C24.5687 60.1811 24.3286 60.2115 24.0944 60.2569C23.9778 60.2806 23.8624 60.3071 23.7527 60.3405C23.6547 60.3665 23.5616 60.4127 23.4777 60.477C23.448 60.5056 23.4574 60.5172 23.4631 60.497C23.4639 60.4808 23.4722 60.5078 23.5014 60.5397C23.5752 60.6185 23.6583 60.6847 23.7482 60.7364C23.9522 60.8599 24.1633 60.9671 24.3799 61.0572C24.819 61.2498 25.2705 61.4291 25.7285 61.5861L27.1144 62.0386C27.5789 62.1876 28.0542 62.2874 28.5343 62.3368C29.0126 62.3685 29.4923 62.3571 29.969 62.3026C30.1962 62.2874 30.4222 62.2541 30.6454 62.2031C30.6925 62.1911 30.7386 62.1739 30.7829 62.1517C30.8029 62.1404 30.822 62.1274 30.8404 62.1129C30.8321 62.128 30.851 62.1443 30.8333 62.1043C30.811 62.0614 30.783 62.0229 30.7504 61.9901C30.5745 61.8211 30.3834 61.6747 30.1802 61.5535L29.5406 61.1614L29.5537 61.1163Z" fill="black"/>
<path d="M29.81 59.8587C30.0296 59.8965 30.2454 59.9536 30.455 60.0294C30.5625 60.0668 30.6672 60.1118 30.7682 60.1643C30.8804 60.2181 30.9829 60.2902 31.0716 60.3775C31.1351 60.4412 31.1748 60.5248 31.184 60.6142C31.1852 60.6671 31.1734 60.7194 31.1497 60.7667C31.1259 60.8139 31.0909 60.8547 31.0478 60.8853C30.9366 60.9599 30.8111 61.0106 30.6792 61.0341C30.4543 61.0795 30.2244 61.0965 29.9952 61.0848C29.5465 61.066 29.112 60.9723 28.6772 60.9132C28.2427 60.8509 27.8063 60.8088 27.3678 60.7621C26.9279 60.7218 26.4913 60.6517 26.0609 60.5524C25.6258 60.4605 25.1981 60.3365 24.7814 60.1814C24.5698 60.099 24.3643 60.0016 24.1667 59.8898C24.0625 59.8303 23.9637 59.7618 23.8714 59.6852C23.8193 59.6408 23.7727 59.5904 23.7324 59.5351C23.7029 59.4965 23.6814 59.4525 23.6691 59.4056C23.6568 59.3586 23.654 59.3097 23.6609 59.2617C23.6716 59.2147 23.6928 59.1708 23.7228 59.1332C23.7529 59.0955 23.791 59.0651 23.8344 59.0442C23.8934 59.0136 23.9562 58.9911 24.0212 58.9771C24.1353 58.9521 24.2518 58.939 24.3687 58.9382C24.5919 58.9354 24.815 58.9521 25.0353 58.9881L25.0349 59.0264C24.8168 59.0571 24.5997 59.0853 24.3919 59.1326C24.2915 59.1538 24.1928 59.1827 24.0968 59.2192C24.0563 59.2345 24.0181 59.2553 23.9832 59.281C23.952 59.3039 23.9511 59.3229 23.9589 59.3117C23.963 59.3006 23.9651 59.3146 23.9889 59.3398C24.0182 59.3685 24.0501 59.3945 24.0841 59.4176C24.1658 59.4732 24.2521 59.5218 24.3421 59.5627C24.5326 59.6517 24.7276 59.7307 24.9264 59.7995C25.3267 59.9449 25.7362 60.0824 26.1512 60.2037L27.406 60.5559C27.8262 60.6728 28.2563 60.7511 28.6909 60.7898C29.1241 60.814 29.5585 60.8061 29.9906 60.7662C30.2029 60.7509 30.4152 60.7353 30.6113 60.7019C30.6959 60.6909 30.7777 60.6647 30.8529 60.6246C30.8768 60.6064 30.8693 60.6134 30.8719 60.6242C30.8769 60.6305 30.869 60.601 30.8465 60.5715C30.7064 60.4284 30.545 60.3078 30.368 60.2138C30.1829 60.1053 29.9901 60.0029 29.7972 59.8948L29.81 59.8587Z" fill="black"/>
</svg>
