<svg width="84" height="84" viewBox="0 0 84 84" fill="none" xmlns="http://www.w3.org/2000/svg">
<path d="M41.8718 43.0035L50.4403 74.9818C32.3033 79.8416 13.6598 69.0778 8.80004 50.9408C3.94026 32.8039 14.7037 14.1588 32.8407 9.29897L41.8718 43.0035Z" fill="#69727E"/>
<path d="M41.8709 43.0034L50.4395 74.9817C68.5765 70.1219 79.3419 51.478 74.4822 33.3411C69.6224 15.2041 50.9768 4.43913 32.8398 9.29893L41.8709 43.0034Z" fill="white"/>
<path d="M19.463 42.738C20.5626 39.8287 22.6552 38.1881 25.7408 37.816C26.2843 37.7505 26.8078 37.7313 27.1388 38.2667C27.4698 38.8021 27.2419 39.2878 26.9144 39.7711C26.4088 40.4948 26.0946 41.3346 26.0008 42.2123C25.9071 43.0901 26.0369 43.9773 26.3783 44.7914C26.7196 45.6055 27.2614 46.32 27.9531 46.8684C28.6449 47.4168 29.4641 47.7813 30.3346 47.928C30.8451 48.0197 31.3919 47.8902 31.8663 48.1843C28.4421 51.5948 22.3087 50.4434 20.2396 46.0306C19.7419 44.9687 19.6333 43.857 19.463 42.738Z" fill="#FEC452"/>
<path d="M19.4632 42.7381C19.6366 43.8562 19.7465 44.9727 20.2429 46.0299C22.312 50.4427 28.4455 51.594 31.8696 48.1836C32.5079 48.6946 32.5762 49.2424 32.0811 49.8508C28.7148 53.9927 22.0823 53.1746 19.7698 48.3308C18.8995 46.5144 18.7558 44.6482 19.4632 42.7381Z" fill="#F7A051"/>
<path d="M34.1027 40.8851C34.1734 41.0957 34.1794 41.3228 34.1197 41.5368C34.06 41.7508 33.9375 41.9421 33.7679 42.0857C33.5984 42.2293 33.3896 42.3188 33.1687 42.3425C32.9477 42.3662 32.7248 42.323 32.5286 42.2186C32.3325 42.1141 32.1722 41.9532 32.0685 41.7567C31.9648 41.5602 31.9225 41.3371 31.947 41.1162C31.9715 40.8954 32.0617 40.6869 32.206 40.5179C32.3502 40.3489 32.5419 40.2271 32.7562 40.1682C32.8916 40.1253 33.0343 40.1098 33.1757 40.1228C33.3172 40.1357 33.4547 40.1768 33.5801 40.2436C33.7055 40.3103 33.8164 40.4015 33.9061 40.5116C33.9958 40.6218 34.0627 40.7488 34.1027 40.8851Z" fill="#EDEDEE"/>
<path d="M13.2271 48.6599C13.0252 48.6969 12.817 48.6739 12.6281 48.5938C12.4393 48.5136 12.278 48.3799 12.1644 48.2091C12.0507 48.0382 11.9897 47.8378 11.9887 47.6327C11.9878 47.4275 12.0471 47.2266 12.1591 47.0547C12.2712 46.8829 12.4312 46.7477 12.6194 46.6658C12.8075 46.584 13.0155 46.5591 13.2177 46.5942C13.4198 46.6294 13.6072 46.723 13.7567 46.8636C13.9061 47.0041 14.0111 47.1854 14.0586 47.385C14.0892 47.5234 14.0919 47.6665 14.0665 47.806C14.041 47.9454 13.9881 48.0784 13.9106 48.1971C13.8332 48.3158 13.7329 48.4179 13.6155 48.4974C13.4981 48.5769 13.366 48.6321 13.2271 48.6599Z" fill="#EDEDEE"/>
<path d="M26.9332 26.4858C27.1348 26.4465 27.3435 26.4671 27.5335 26.5452C27.7235 26.6232 27.8865 26.7552 28.0023 26.9248C28.1181 27.0945 28.1817 27.2943 28.1851 27.4997C28.1885 27.7051 28.1317 27.907 28.0216 28.0804C27.9115 28.2538 27.753 28.3912 27.5657 28.4755C27.3784 28.5598 27.1705 28.5874 26.9677 28.5548C26.7649 28.5222 26.5761 28.4309 26.4246 28.2921C26.2731 28.1534 26.1656 27.9733 26.1154 27.7741C26.0831 27.6358 26.0788 27.4924 26.1025 27.3523C26.1263 27.2122 26.1778 27.0783 26.2539 26.9584C26.3301 26.8384 26.4294 26.7349 26.546 26.6537C26.6626 26.5726 26.7942 26.5155 26.9332 26.4858Z" fill="#EDEDEE"/>
<path d="M40.6984 53.3068C40.7629 53.5195 40.762 53.7465 40.696 53.9587C40.6299 54.1708 40.5017 54.3583 40.328 54.4968C40.1542 54.6353 39.9429 54.7185 39.7214 54.7355C39.4998 54.7526 39.2783 54.7028 39.0853 54.5926C38.8924 54.4824 38.737 54.3168 38.6392 54.1173C38.5414 53.9178 38.5057 53.6936 38.5368 53.4735C38.5678 53.2535 38.6642 53.0479 38.8134 52.8833C38.9626 52.7186 39.1578 52.6025 39.3736 52.55C39.5103 52.5118 39.6532 52.5011 39.7941 52.5186C39.9349 52.536 40.0709 52.5812 40.1942 52.6516C40.3174 52.722 40.4254 52.8162 40.512 52.9287C40.5986 53.0411 40.6619 53.1697 40.6984 53.3068Z" fill="#EDEDEE"/>
<path d="M23.1336 61.2482C22.9319 61.2839 22.7241 61.2597 22.536 61.1787C22.3478 61.0976 22.1875 60.9633 22.0748 60.7922C21.9621 60.6211 21.902 60.4208 21.9018 60.2159C21.9017 60.011 21.9615 59.8106 22.0739 59.6393C22.1863 59.4681 22.3464 59.3334 22.5344 59.2521C22.7224 59.1708 22.9302 59.1462 23.132 59.1816C23.3338 59.2169 23.5208 59.3105 23.67 59.4509C23.8192 59.5913 23.924 59.7723 23.9716 59.9716C24.0023 60.1106 24.005 60.2543 23.9793 60.3943C23.9536 60.5343 23.9001 60.6677 23.822 60.7867C23.7439 60.9057 23.6428 61.0079 23.5245 61.0871C23.4063 61.1664 23.2734 61.2212 23.1336 61.2482Z" fill="#EDEDEE"/>
<path d="M16.0597 34.8424C16.2595 34.7946 16.4689 34.8064 16.662 34.8764C16.8551 34.9463 17.0235 35.0713 17.1464 35.236C17.2692 35.4006 17.3411 35.5977 17.3532 35.8027C17.3652 36.0078 17.3169 36.2119 17.2142 36.3898C17.1115 36.5677 16.9589 36.7116 16.7753 36.8037C16.5916 36.8958 16.3851 36.932 16.1811 36.908C15.977 36.8839 15.7846 36.8006 15.6274 36.6683C15.4703 36.536 15.3553 36.3606 15.2968 36.1637C15.2595 36.0268 15.2496 35.8839 15.2678 35.7432C15.286 35.6025 15.3319 35.4669 15.4028 35.344C15.4737 35.2211 15.5683 35.1136 15.681 35.0275C15.7938 34.9414 15.9225 34.8785 16.0597 34.8424Z" fill="#EDEDEE"/>
<path d="M35.1485 61.3027C35.3491 61.2584 35.5583 61.2737 35.7502 61.3469C35.9421 61.4201 36.1083 61.548 36.2284 61.7147C36.3484 61.8813 36.417 62.0795 36.4256 62.2848C36.4342 62.49 36.3824 62.6932 36.2768 62.8694C36.1711 63.0455 36.0161 63.1868 35.831 63.2758C35.6458 63.3648 35.4387 63.3976 35.2351 63.3701C35.0316 63.3427 34.8405 63.2562 34.6856 63.1213C34.5307 62.9864 34.4187 62.8091 34.3635 62.6112C34.328 62.4737 34.3201 62.3306 34.3405 62.19C34.3608 62.0495 34.4089 61.9144 34.482 61.7926C34.5551 61.6708 34.6516 61.5648 34.766 61.4807C34.8805 61.3966 35.0105 61.3361 35.1485 61.3027Z" fill="#EDEDEE"/>
<path d="M51.9982 22.882C49.7788 23.4767 47.5594 24.0713 45.34 24.666C44.2025 24.9708 43.6416 24.5703 43.5207 23.3938C43.3312 21.5347 44.2651 19.9289 46.0927 19.0811C46.3034 19.0044 46.4882 18.8698 46.6257 18.6926C46.7632 18.5155 46.8478 18.3031 46.8697 18.08C47.1684 16.3374 48.233 15.1876 49.9148 14.7438C51.5678 14.3009 53.0503 14.7681 54.1612 16.1075C54.5184 16.5369 54.8618 16.641 55.394 16.5973C57.4256 16.4281 59.0869 17.4733 59.803 19.3123C60.1483 20.2002 59.8904 20.7587 58.9721 21.0099C56.6503 21.6423 54.3222 22.2576 51.9982 22.882Z" fill="#C6CACF"/>
<path d="M58.0264 61.5517C55.807 62.1464 53.5876 62.741 51.3698 63.3353C50.1973 63.6495 49.6286 63.2391 49.5239 62.0275C49.3625 60.1524 50.2954 58.5809 52.1394 57.7373C52.3394 57.6623 52.5141 57.5325 52.6435 57.3626C52.773 57.1928 52.8519 56.9899 52.8712 56.7773C53.1667 55.0355 54.2184 53.8756 55.8952 53.4263C57.5721 52.9769 59.0656 53.4532 60.1896 54.8163C60.3124 54.9911 60.4822 55.1276 60.6792 55.21C60.8763 55.2923 61.0927 55.3172 61.3034 55.2818C63.3378 55.0914 64.9452 56.0436 65.7413 57.8441C66.1844 58.861 65.9325 59.423 64.8647 59.7142C62.5937 60.333 60.3094 60.9399 58.0264 61.5517Z" fill="#C6CACF"/>
<path d="M59.0607 44.9284C57.6542 45.3036 56.1679 45.2533 54.7899 44.7839C53.4119 44.3145 52.2041 43.447 51.3191 42.2911C50.4341 41.1352 49.9117 39.7429 49.818 38.2901C49.7243 36.8374 50.0635 35.3895 50.7926 34.1295C51.5218 32.8695 52.6082 31.854 53.9144 31.2114C55.2207 30.5688 56.6882 30.328 58.1313 30.5194C59.5744 30.7108 60.9284 31.3258 62.022 32.2866C63.1156 33.2475 63.8998 34.511 64.2753 35.9175C64.7703 37.8036 64.5001 39.8089 63.5234 41.4967C62.5467 43.1844 60.9427 44.4179 59.0607 44.9284ZM62.2453 36.4871C61.5338 33.7363 58.6204 32.0273 55.8487 32.7308C53.0769 33.4342 51.3786 36.3363 52.0702 39.1146C52.7618 41.8929 55.7247 43.6277 58.5071 42.8941C61.2577 42.1691 62.9606 39.2522 62.2453 36.4871Z" fill="#F7A051"/>
<path d="M66.3357 29.3719C66.3884 29.552 66.39 29.7433 66.3403 29.9243C66.2907 30.1053 66.1917 30.269 66.0544 30.397C65.5857 30.8875 65.1128 31.3757 64.616 31.838C64.521 31.936 64.4076 32.0143 64.2824 32.0685C64.1571 32.1227 64.0224 32.1517 63.8859 32.1538C63.7494 32.1559 63.6139 32.1312 63.487 32.0809C63.3601 32.0306 63.2443 31.9559 63.1463 31.8609C63.0483 31.7659 62.9699 31.6525 62.9158 31.5272C62.8616 31.402 62.8326 31.2673 62.8304 31.1308C62.8283 30.9943 62.8531 30.8587 62.9033 30.7318C62.9536 30.6049 63.0284 30.4892 63.1234 30.3912C63.6204 29.838 64.1541 29.319 64.7209 28.8377C64.8514 28.7278 65.0078 28.6531 65.1753 28.6208C65.3428 28.5886 65.5157 28.5997 65.6777 28.6533C65.8396 28.7069 65.9851 28.8011 66.1003 28.9269C66.2155 29.0526 66.2965 29.2059 66.3357 29.3719Z" fill="#F7A051"/>
<path d="M45.7682 33.7933C45.9422 33.7857 46.1164 33.7962 46.2882 33.8245C46.9478 33.9888 47.609 34.1527 48.2535 34.35C48.8588 34.5408 49.1607 35.0755 49.0259 35.6163C48.883 36.1901 48.3371 36.5137 47.6909 36.3611C47.0106 36.2024 46.3307 36.0197 45.6654 35.8023C45.4393 35.741 45.2434 35.5992 45.1143 35.4036C44.9853 35.2081 44.9321 34.9722 44.9647 34.7402C44.9997 34.2789 45.2712 33.9811 45.7682 33.7933Z" fill="#F7A051"/>
<path d="M49.4166 46.9771C48.855 47.0833 48.4644 46.9936 48.1785 46.6268C47.8743 46.236 47.8428 45.7874 48.1461 45.4112C48.667 44.7625 49.2585 44.174 49.9097 43.6563C50.2855 43.3595 50.6984 43.4177 51.0686 43.6732C51.4389 43.9286 51.6408 44.3639 51.453 44.7638C50.9896 45.7457 50.097 46.3344 49.4166 46.9771Z" fill="#F7A051"/>
<path d="M68.5133 41.8532C68.3564 41.8531 68.1998 41.838 68.0459 41.8079C67.3476 41.6267 66.6416 41.4612 65.9613 41.2257C65.8346 41.186 65.7173 41.1211 65.6162 41.035C65.5152 40.949 65.4325 40.8434 65.3732 40.7247C65.3138 40.6059 65.279 40.4764 65.2708 40.344C65.2626 40.2115 65.2812 40.0787 65.3254 39.9535C65.5221 39.4148 65.9208 39.1273 66.5022 39.2545C67.2269 39.4133 67.9504 39.5997 68.6581 39.8227C68.885 39.8834 69.082 40.0248 69.212 40.2205C69.342 40.4161 69.396 40.6525 69.364 40.8852C69.3275 41.3793 69.0266 41.6816 68.5133 41.8532Z" fill="#F7A051"/>
<path d="M66.3276 45.5614C66.4256 46.1626 66.3259 46.5542 65.9569 46.8253C65.5879 47.0964 65.1169 47.1459 64.7453 46.8345C64.1062 46.3097 63.5231 45.7203 63.0053 45.0755C62.7105 44.7009 62.7688 44.2948 63.0186 43.9226C63.2685 43.5504 63.7006 43.3494 64.1063 43.5272C65.1047 43.9758 65.6758 44.9107 66.3276 45.5614Z" fill="#F7A051"/>
<path d="M51.4644 30.7339C51.5446 31.2939 51.4492 31.6826 51.0755 31.955C50.7017 32.2274 50.2381 32.2664 49.8645 31.9538C49.226 31.4319 48.6436 30.8451 48.1266 30.2027C47.8334 29.8277 47.8928 29.4128 48.1583 29.0484C48.4239 28.6839 48.8337 28.4633 49.2402 28.663C50.2081 29.1317 50.837 30.0085 51.4644 30.7339Z" fill="#F7A051"/>
<path d="M59.8299 25.6654C60.6035 25.4786 61.2542 26.017 61.1695 26.732C61.0598 27.5301 60.8556 28.3124 60.5611 29.0623C60.524 29.1841 60.4623 29.297 60.3798 29.394C60.2972 29.491 60.1956 29.57 60.0813 29.626C59.9669 29.6821 59.8423 29.7141 59.7151 29.7199C59.5879 29.7258 59.4608 29.7054 59.3418 29.6601C58.8081 29.5013 58.4763 29.1093 58.5991 28.524C58.7544 27.7798 58.9618 27.0456 59.1805 26.3219C59.2181 26.1635 59.2986 26.0184 59.4131 25.9026C59.5277 25.7868 59.6719 25.7047 59.8299 25.6654Z" fill="#F7A051"/>
<path d="M55.7458 46.7631C55.747 46.9387 55.7318 47.114 55.7003 47.2868C55.5347 47.9416 55.37 48.5996 55.1734 49.2406C54.9792 49.852 54.4661 50.1327 53.911 49.983C53.778 49.9516 53.6526 49.8938 53.5424 49.813C53.4322 49.7321 53.3393 49.63 53.2693 49.5126C53.1994 49.3951 53.1537 49.2648 53.1351 49.1294C53.1165 48.994 53.1254 48.8562 53.1611 48.7243C53.3147 48.0249 53.5052 47.3293 53.723 46.6469C53.7847 46.4222 53.9246 46.2269 54.1174 46.0961C54.3103 45.9654 54.5434 45.9077 54.775 45.9336C55.2709 45.9644 55.5624 46.2631 55.7458 46.7631Z" fill="#F7A051"/>
<path d="M53.438 27.9406C53.3416 27.581 53.2158 27.226 53.1494 26.8635C53.0971 26.6031 53.145 26.3326 53.2833 26.1059C53.4217 25.8792 53.6404 25.713 53.8959 25.6404C54.1544 25.5731 54.4288 25.6081 54.6621 25.738C54.8955 25.868 55.0697 26.0829 55.1486 26.338C55.3846 27.0437 55.5773 27.7631 55.7258 28.4922C55.8331 29.0517 55.553 29.4764 55.0081 29.6701C54.753 29.7466 54.4783 29.7215 54.2413 29.6C54.0044 29.4785 53.8237 29.27 53.737 29.0183C53.6191 28.6655 53.5201 28.3067 53.4404 27.9433L53.438 27.9406Z" fill="#F7A051"/>
<path d="M47.2797 41.5477C46.9408 41.6385 46.6063 41.752 46.2646 41.8196C45.652 41.9326 45.1175 41.6052 44.9839 41.0681C44.9196 40.8089 44.9577 40.5349 45.0903 40.3031C45.2228 40.0713 45.4397 39.8996 45.6957 39.8236C46.3828 39.6002 47.0811 39.4131 47.7878 39.263C48.0475 39.2008 48.3211 39.2411 48.5519 39.3756C48.7826 39.5101 48.9526 39.7283 49.0265 39.9849C49.1793 40.5169 48.8801 41.0677 48.2931 41.2761C47.957 41.39 47.6106 41.459 47.2797 41.5477Z" fill="#F7A051"/>
<path d="M67.6046 36.0966C67.245 36.193 66.8911 36.3168 66.5275 36.3852C66.267 36.4387 65.9959 36.3913 65.769 36.2528C65.542 36.1143 65.376 35.8948 65.3044 35.6387C65.2366 35.3818 65.2702 35.1087 65.3983 34.876C65.5265 34.6432 65.7392 34.4687 65.9925 34.3886C66.6984 34.1534 67.4178 33.9606 68.1467 33.8114C68.7078 33.7037 69.1324 33.9838 69.3258 34.5271C69.4024 34.7825 69.3772 35.0577 69.2555 35.295C69.1337 35.5324 68.9249 35.7134 68.6728 35.8002C68.3191 35.9154 67.9596 36.0118 67.5957 36.0888L67.6046 36.0966Z" fill="#F7A051"/>
<path d="M60.893 47.6996C60.9834 48.0368 61.0969 48.3713 61.1646 48.713C61.2791 49.3251 60.9605 49.8607 60.4195 49.9988C60.1605 50.064 59.8863 50.0272 59.6537 49.8959C59.4211 49.7646 59.2479 49.5489 59.1699 49.2935C58.9473 48.6062 58.7602 47.9079 58.6093 47.2014C58.5462 46.9419 58.5853 46.6681 58.7185 46.4366C58.8516 46.205 59.0687 46.0336 59.3247 45.9576C59.8543 45.8021 60.4119 46.1011 60.621 46.6845C60.7333 47.0142 60.8022 47.3607 60.893 47.6996Z" fill="#F7A051"/>
<path d="M62.246 36.487C62.9613 39.2521 61.26 42.1686 58.5062 42.8945C55.7238 43.6281 52.7592 41.8869 52.0693 39.1149C51.3794 36.343 53.1031 33.4274 55.8478 32.7312C58.5925 32.035 61.5345 33.7362 62.246 36.487Z" fill="#FEC452"/>
</svg>
