<svg width="15" height="12" viewBox="0 0 15 12" fill="none" xmlns="http://www.w3.org/2000/svg">
<path d="M0.0546875 11.0688V10.5497C0.387449 10.4964 0.676951 10.4099 0.923195 10.2901L1.66192 9.93074C1.90817 9.81095 2.17771 9.70446 2.47054 9.61129C2.76337 9.51812 3.11609 9.47153 3.52872 9.47153C3.95465 9.47153 4.32402 9.5281 4.63681 9.64124C4.94961 9.75438 5.25575 9.88083 5.55523 10.0206C5.85472 10.1603 6.15753 10.2901 6.46367 10.4099C6.76981 10.5297 7.12254 10.5896 7.52185 10.5896C7.92117 10.5896 8.27389 10.5297 8.58003 10.4099C8.88618 10.2901 9.18899 10.1603 9.48847 10.0206C9.78796 9.88083 10.0974 9.75438 10.4169 9.64124C10.7363 9.5281 11.1024 9.47153 11.515 9.47153C11.9409 9.47153 12.297 9.51812 12.5832 9.61129C12.8693 9.70446 13.1355 9.81095 13.3818 9.93074L14.1205 10.2901C14.3668 10.4099 14.6563 10.4964 14.989 10.5497V11.0688C14.6563 11.0289 14.3601 10.949 14.1005 10.8292L13.3219 10.4698C13.0623 10.35 12.7928 10.2402 12.5133 10.1404C12.2338 10.0406 11.901 9.99064 11.515 9.99064C11.1423 9.99064 10.8029 10.0472 10.4967 10.1603C10.1906 10.2735 9.88779 10.3999 9.5883 10.5397C9.28882 10.6795 8.97602 10.8092 8.64991 10.929C8.32381 11.0488 7.94779 11.1087 7.52185 11.1087C7.09592 11.1087 6.7199 11.0488 6.39379 10.929C6.06769 10.8092 5.75489 10.6795 5.4554 10.5397C5.15592 10.3999 4.85643 10.2735 4.55695 10.1603C4.25746 10.0472 3.91472 9.99064 3.52872 9.99064C3.15602 9.99064 2.82659 10.0406 2.54042 10.1404C2.25424 10.2402 1.98138 10.35 1.72182 10.4698L0.94316 10.8292C0.683607 10.949 0.387449 11.0289 0.0546875 11.0688ZM0.0546875 8.1538V7.63469C0.387449 7.58145 0.676951 7.49493 0.923195 7.37513L1.66192 7.01575C1.90817 6.89596 2.17771 6.78947 2.47054 6.6963C2.76337 6.60313 3.11609 6.55654 3.52872 6.55654C3.95465 6.55654 4.32402 6.61311 4.63681 6.72625C4.94961 6.83939 5.25575 6.96584 5.55523 7.1056C5.85472 7.24536 6.15753 7.37513 6.46367 7.49493C6.76981 7.61472 7.12254 7.67462 7.52185 7.67462C7.92117 7.67462 8.27389 7.61472 8.58003 7.49493C8.88618 7.37513 9.18899 7.24536 9.48847 7.1056C9.78796 6.96584 10.0974 6.83939 10.4169 6.72625C10.7363 6.61311 11.1024 6.55654 11.515 6.55654C11.9409 6.55654 12.297 6.60313 12.5832 6.6963C12.8693 6.78947 13.1355 6.89596 13.3818 7.01575L14.1205 7.37513C14.3668 7.49493 14.6563 7.58145 14.989 7.63469V8.1538C14.6563 8.11386 14.3601 8.034 14.1005 7.91421L13.3219 7.55483C13.0623 7.43503 12.7928 7.32522 12.5133 7.22539C12.2338 7.12556 11.901 7.07565 11.515 7.07565C11.1423 7.07565 10.8029 7.13222 10.4967 7.24536C10.1906 7.3585 9.88779 7.48495 9.5883 7.62471C9.28882 7.76446 8.97602 7.89424 8.64991 8.01404C8.32381 8.13383 7.94779 8.19373 7.52185 8.19373C7.09592 8.19373 6.7199 8.13383 6.39379 8.01404C6.06769 7.89424 5.75489 7.76446 5.4554 7.62471C5.15592 7.48495 4.85643 7.3585 4.55695 7.24536C4.25746 7.13222 3.91472 7.07565 3.52872 7.07565C3.15602 7.07565 2.82659 7.12556 2.54042 7.22539C2.25424 7.32522 1.98138 7.43503 1.72182 7.55483L0.94316 7.91421C0.683607 8.034 0.387449 8.11386 0.0546875 8.1538ZM0.0546875 5.23881V4.7197C0.387449 4.66646 0.676951 4.57994 0.923195 4.46014L1.66192 4.10076C1.90817 3.98097 2.17771 3.87449 2.47054 3.78131C2.76337 3.68814 3.11609 3.64155 3.52872 3.64155C3.95465 3.64155 4.32402 3.69812 4.63681 3.81126C4.94961 3.9244 5.25575 4.05085 5.55523 4.19061C5.85472 4.33037 6.15753 4.46015 6.46367 4.57994C6.76981 4.69973 7.12254 4.75963 7.52185 4.75963C7.92117 4.75963 8.27389 4.69973 8.58003 4.57994C8.88618 4.46015 9.18899 4.33037 9.48847 4.19061C9.78796 4.05085 10.0974 3.9244 10.4169 3.81126C10.7363 3.69812 11.1024 3.64155 11.515 3.64155C11.9409 3.64155 12.297 3.68814 12.5832 3.78131C12.8693 3.87449 13.1355 3.98097 13.3818 4.10076L14.1205 4.46014C14.3668 4.57994 14.6563 4.66646 14.989 4.7197V5.23881C14.6563 5.19888 14.3601 5.11901 14.1005 4.99922L13.3219 4.63984C13.0623 4.52004 12.7928 4.41023 12.5133 4.3104C12.2338 4.21057 11.901 4.16066 11.515 4.16066C11.1423 4.16066 10.8029 4.21723 10.4967 4.33037C10.1906 4.44351 9.88779 4.56996 9.5883 4.70972C9.28882 4.84948 8.97602 4.97925 8.64991 5.09905C8.32381 5.21884 7.94779 5.27874 7.52185 5.27874C7.09592 5.27874 6.7199 5.21884 6.39379 5.09905C6.06769 4.97925 5.75489 4.84948 5.4554 4.70972C5.15592 4.56996 4.85643 4.44351 4.55695 4.33037C4.25746 4.21723 3.91472 4.16066 3.52872 4.16066C3.15602 4.16066 2.82659 4.21057 2.54042 4.3104C2.25424 4.41023 1.98138 4.52004 1.72182 4.63984L0.94316 4.99922C0.683607 5.11901 0.387449 5.19888 0.0546875 5.23881ZM0.0546875 2.32382V1.80471C0.387449 1.75147 0.676951 1.66495 0.923195 1.54516L1.66192 1.18577C1.90817 1.06598 2.17771 0.959495 2.47054 0.866322C2.76337 0.773149 3.11609 0.726562 3.52872 0.726562C3.95465 0.726562 4.32402 0.783132 4.63681 0.896271C4.94961 1.00941 5.25575 1.13586 5.55523 1.27562C5.85472 1.41538 6.15753 1.54516 6.46367 1.66495C6.76981 1.78474 7.12254 1.84464 7.52185 1.84464C7.92117 1.84464 8.27389 1.78474 8.58003 1.66495C8.88618 1.54516 9.18899 1.41538 9.48847 1.27562C9.78796 1.13586 10.0974 1.00941 10.4169 0.896271C10.7363 0.783132 11.1024 0.726562 11.515 0.726562C11.9409 0.726562 12.297 0.773149 12.5832 0.866322C12.8693 0.959495 13.1355 1.06598 13.3818 1.18577L14.1205 1.54516C14.3668 1.66495 14.6563 1.75147 14.989 1.80471V2.32382C14.6563 2.28389 14.3601 2.20402 14.1005 2.08423L13.3219 1.72485C13.0623 1.60505 12.7928 1.49524 12.5133 1.39541C12.2338 1.29558 11.901 1.24567 11.515 1.24567C11.1423 1.24567 10.8029 1.30224 10.4967 1.41538C10.1906 1.52852 9.88779 1.65497 9.5883 1.79473C9.28882 1.93449 8.97602 2.06426 8.64991 2.18406C8.32381 2.30385 7.94779 2.36375 7.52185 2.36375C7.09592 2.36375 6.7199 2.30385 6.39379 2.18406C6.06769 2.06426 5.75489 1.93449 5.4554 1.79473C5.15592 1.65497 4.85643 1.52852 4.55695 1.41538C4.25746 1.30224 3.91472 1.24567 3.52872 1.24567C3.15602 1.24567 2.82659 1.29558 2.54042 1.39541C2.25424 1.49524 1.98138 1.60505 1.72182 1.72485L0.94316 2.08423C0.683607 2.20402 0.387449 2.28389 0.0546875 2.32382Z" fill="#1193D6"/>
</svg>
